<?xml version="1.0" encoding="UTF-8" standalone="no"?>
<!-- Created with Inkscape (http://www.inkscape.org/) -->

<svg
   xmlns:dc="http://purl.org/dc/elements/1.1/"
   xmlns:cc="http://creativecommons.org/ns#"
   xmlns:rdf="http://www.w3.org/1999/02/22-rdf-syntax-ns#"
   xmlns:svg="http://www.w3.org/2000/svg"
   xmlns="http://www.w3.org/2000/svg"
   xmlns:sodipodi="http://sodipodi.sourceforge.net/DTD/sodipodi-0.dtd"
   xmlns:inkscape="http://www.inkscape.org/namespaces/inkscape"
   width="26.458334mm"
   height="98.181068mm"
   viewBox="0 0 26.458334 98.181067"
   version="1.1"
   id="svg8"
   inkscape:version="0.92.4 (5da689c313, 2019-01-14)"
   sodipodi:docname="leaves_decor_1.svg">
  <defs
     id="defs2">
    <clipPath
       clipPathUnits="userSpaceOnUse"
       id="clipPath19428-7-3">
      <rect
         inkscape:export-ydpi="171"
         inkscape:export-xdpi="171"
         inkscape:export-filename="C:\Users\poalalipo\Desktop\nutrisi\UI\00_SplashScreen.png"
         y="1.9113089"
         x="-183.07187"
         height="326.71863"
         width="183.48929"
         id="rect19430-5-2"
         style="opacity:1;fill:#ffffff;fill-opacity:1;stroke:#4d4d4d;stroke-width:0.66102457;stroke-linecap:round;stroke-linejoin:round;stroke-miterlimit:4;stroke-dasharray:none;stroke-dashoffset:0;stroke-opacity:1;paint-order:markers stroke fill"
         transform="scale(-1,1)" />
    </clipPath>
  </defs>
  <sodipodi:namedview
     id="base"
     pagecolor="#ffffff"
     bordercolor="#666666"
     borderopacity="1.0"
     inkscape:pageopacity="0.0"
     inkscape:pageshadow="2"
     inkscape:zoom="0.98994949"
     inkscape:cx="-95.058091"
     inkscape:cy="129.07263"
     inkscape:document-units="mm"
     inkscape:current-layer="layer1"
     showgrid="false"
     inkscape:window-width="1366"
     inkscape:window-height="715"
     inkscape:window-x="-8"
     inkscape:window-y="-8"
     inkscape:window-maximized="1"
     showguides="false" />
  <metadata
     id="metadata5">
    <rdf:RDF>
      <cc:Work
         rdf:about="">
        <dc:format>image/svg+xml</dc:format>
        <dc:type
           rdf:resource="http://purl.org/dc/dcmitype/StillImage" />
        <dc:title />
      </cc:Work>
    </rdf:RDF>
  </metadata>
  <g
     inkscape:label="Layer 1"
     inkscape:groupmode="layer"
     id="layer1"
     transform="translate(-25.683743,-146.05286)">
    <g
       id="g898"
       transform="matrix(0.79588425,0,0,0.79588425,5.2424563,49.85199)"
       inkscape:export-filename="C:\Users\ariefw\Desktop\nutrisi\Project\nutrizer\assets\images\leaves_decor_1.png"
       inkscape:export-xdpi="96"
       inkscape:export-ydpi="96">
      <path
         style="color:#000000;font-style:normal;font-variant:normal;font-weight:normal;font-stretch:normal;font-size:medium;line-height:normal;font-family:sans-serif;font-variant-ligatures:normal;font-variant-position:normal;font-variant-caps:normal;font-variant-numeric:normal;font-variant-alternates:normal;font-feature-settings:normal;text-indent:0;text-align:start;text-decoration:none;text-decoration-line:none;text-decoration-style:solid;text-decoration-color:#000000;letter-spacing:normal;word-spacing:normal;text-transform:none;writing-mode:lr-tb;direction:ltr;text-orientation:mixed;dominant-baseline:auto;baseline-shift:baseline;text-anchor:start;white-space:normal;shape-padding:0;clip-rule:nonzero;display:inline;overflow:visible;visibility:visible;opacity:1;isolation:auto;mix-blend-mode:normal;color-interpolation:sRGB;color-interpolation-filters:linearRGB;solid-color:#000000;solid-opacity:1;vector-effect:none;fill:#c5dc9b;fill-opacity:1;fill-rule:nonzero;stroke:none;stroke-width:1.68379819;stroke-linecap:round;stroke-linejoin:round;stroke-miterlimit:4;stroke-dasharray:none;stroke-dashoffset:0;stroke-opacity:1;paint-order:markers stroke fill;color-rendering:auto;image-rendering:auto;shape-rendering:auto;text-rendering:auto;enable-background:accumulate"
         d="M 1.953125 0 C 0.60843234 -0.017103972 -0.43139182 0.27228004 0.2109375 2.2421875 C 2.9901051 2.2243497 5.7697952 2.4719932 8.5078125 2.9453125 C 9.8051103 0.3133146 7.5793096 0.12190719 5.4707031 0.064453125 L 4.4042969 0.064453125 C 3.6750073 0.13171725 2.7599406 0.010262383 1.953125 0 z M 11.769531 1.0839844 C 11.279722 1.1437871 10.968669 1.5460195 10.976562 2.6757812 C 11.156833 4.36833 14.864448 3.7843822 16.375 4.8320312 C 18.42026 5.49161 20.613036 6.919259 20.894531 3.8144531 C 19.000244 3.0178269 16.996689 2.5195894 15.054688 1.8554688 C 13.898977 1.8364991 12.585881 0.98431303 11.769531 1.0839844 z M 23.564453 4.9140625 C 23.032294 4.8379608 22.785317 5.2119001 22.484375 6.3515625 C 22.344924 7.9093499 25.84752 8.1270659 27.080078 9.2988281 C 29.070847 10.187952 31.198025 12.516244 31.998047 9.2265625 C 29.735482 7.7897295 27.276605 6.7033185 24.902344 5.4707031 C 24.304434 5.1675013 23.883748 4.9597235 23.564453 4.9140625 z M 34.179688 10.732422 C 33.593934 10.8221 33.239706 12.190591 32.705078 12.630859 C 34.311741 13.707025 35.761059 14.998963 37.171875 16.316406 C 38.596516 17.901387 39.810728 19.971008 41.482422 17.443359 C 39.568675 15.06055 37.288129 12.993523 34.857422 11.150391 C 34.595526 10.814487 34.374936 10.702529 34.179688 10.732422 z M 93.867188 15.130859 C 93.781005 15.126457 93.688522 15.130992 93.587891 15.146484 C 91.904 15.405721 92.820786 17.657663 91.771484 19 C 90.76823 20.283599 88.34196 19.930911 88.589844 21.541016 C 88.84908 23.224906 91.101022 22.30812 92.443359 23.357422 C 93.726958 24.360676 93.37427 26.786946 94.984375 26.539062 C 96.668266 26.279829 95.75148 24.027884 96.800781 22.685547 C 97.804035 21.401948 100.23028 21.754693 99.982422 20.144531 C 99.723185 18.460641 97.471243 19.377427 96.128906 18.328125 C 94.925532 17.387574 95.159925 15.196897 93.867188 15.130859 z M 43.041016 19.564453 C 42.466798 19.470781 41.666131 20.644896 41.035156 20.863281 C 42.174383 22.451149 43.16002 24.150334 43.982422 25.921875 C 44.814727 27.82192 45.118476 30.224091 47.582031 28.400391 C 46.657851 25.467857 45.207661 22.725674 43.525391 20.162109 C 43.399142 19.766376 43.232422 19.595677 43.041016 19.564453 z M 47.871094 30.878906 C 47.582733 30.849279 47.207832 30.951147 46.712891 31.230469 C 45.269166 32.153885 47.477559 35.18498 47.195312 37.011719 C 47.508606 39.118238 47.095956 41.729786 50.035156 40.640625 C 49.989364 38.689804 49.584271 36.770391 49.347656 34.839844 C 48.733497 33.596162 49.120657 31.007291 47.871094 30.878906 z M 49.626953 43.050781 C 49.038809 43.043973 48.14759 43.335062 47.732422 43.207031 C 47.729745 45.105933 47.75165 47.015796 47.587891 48.910156 C 47.395037 51.046365 46.555904 53.555586 49.646484 53.03125 C 50.060867 49.885565 50.184339 46.711367 50.189453 43.541016 C 50.223043 43.167515 49.97984 43.054866 49.626953 43.050781 z M 20.425781 52.091797 C 17.855082 52.091797 15.755859 54.189072 15.755859 56.759766 C 15.755859 59.330459 17.855082 61.429688 20.425781 61.429688 C 22.996481 61.429688 25.09375 59.330459 25.09375 56.759766 C 25.09375 54.189072 22.996481 52.091797 20.425781 52.091797 z M 20.425781 53.388672 C 22.293616 53.388672 23.791016 54.891937 23.791016 56.759766 C 23.791016 58.627594 22.293616 60.126953 20.425781 60.126953 C 18.557949 60.126953 17.054688 58.627594 17.054688 56.759766 C 17.054688 54.891937 18.557949 53.388672 20.425781 53.388672 z M 46.90625 55.128906 C 46.538706 57.562312 46.060959 59.977569 45.513672 62.376953 C 43.861022 62.776665 42.254153 63.428244 40.716797 64.150391 C 39.083961 64.892571 36.958855 65.827204 39.269531 67.425781 C 40.498486 67.624193 42.215918 65.64454 43.814453 65.498047 C 45.262777 64.142492 48.074965 65.969729 47.857422 63.734375 C 48.104086 60.988943 49.040734 58.230541 49.328125 55.445312 C 48.520817 55.339672 47.713558 55.234489 46.90625 55.128906 z M 52.056641 61.515625 C 50.625637 61.712292 49.678713 61.072692 50.162109 63.039062 C 50.16312 65.183483 53.837255 63.382313 55.400391 64.148438 C 57.547004 64.467711 60.181814 65.884732 60.160156 62.642578 C 57.531422 61.873205 54.789445 61.584811 52.056641 61.515625 z M 62.738281 63.40625 C 62.144999 63.290284 62.2889 64.617443 61.964844 65.033203 C 61.895039 66.687098 65.404467 66.686943 66.603516 68.005859 C 68.486827 69.042048 70.19605 71.296972 71.359375 68.294922 C 68.88195 66.251572 65.991944 64.781351 63.041016 63.550781 C 62.922672 63.468469 62.823036 63.422817 62.738281 63.40625 z M 45.035156 67.060547 C 43.463417 67.178222 43.81048 70.57922 42.634766 71.925781 C 41.737183 73.883641 39.508356 75.560396 42.470703 76.753906 C 44.679168 74.11141 45.924537 70.811494 46.720703 67.496094 C 46.158724 67.350774 45.597135 67.205836 45.035156 67.060547 z M 36.035156 67.332031 C 33.965498 69.131607 32.287673 71.36287 31.029297 73.794922 C 29.627147 75.701073 30.364327 76.423375 32.533203 76.564453 C 33.519897 73.69572 35.398757 71.165217 37.650391 69.15625 C 37.112037 68.547959 36.57351 67.940322 36.035156 67.332031 z M 73.195312 70.158203 C 72.873567 70.213216 72.52359 70.502371 72.121094 71.142578 C 71.335119 72.639512 74.73662 74.035458 75.324219 75.78125 C 76.661984 77.441793 77.437683 80.163131 79.589844 77.75 C 78.603514 75.929157 77.268213 74.336558 76.039062 72.681641 C 74.877834 71.919524 74.160559 69.993163 73.195312 70.158203 z M 39.261719 77.109375 C 37.974101 77.14854 36.242743 79.272202 34.390625 79.023438 C 33.115006 78.343254 30.327135 77.754735 30.710938 79.791016 C 33.332711 82.982394 38.178684 81.020792 40.691406 78.636719 C 40.21455 78.127453 39.738579 77.618641 39.261719 77.109375 z M 80.470703 80.236328 C 80.214994 80.204194 79.901363 80.310492 79.509766 80.607422 C 77.434546 81.39728 80.482562 84.202528 80.380859 86.001953 C 81.048909 88.072255 80.814957 91.097786 83.755859 89.646484 C 83.501606 87.737204 82.826128 85.911608 82.373047 84.044922 C 81.616382 83.100735 81.578774 80.375576 80.470703 80.236328 z M 83.8125 92.115234 C 83.453268 92.083183 82.939557 92.265269 82.404297 92.316406 C 80.997 92.962328 82.429315 96.093299 82.048828 97.730469 C 82.031216 99.89393 80.966858 102.83749 84.25 102.04688 C 84.576375 99.103106 84.49102 96.151782 84.292969 93.203125 C 84.376291 92.394858 84.171732 92.147285 83.8125 92.115234 z M 81.546875 104.20508 C 81.28335 106.1325 80.803701 108.02243 80.291016 109.89648 C 79.573255 111.90479 78.336472 113.9987 81.371094 114.22461 C 82.597895 111.11782 83.469568 107.86692 83.957031 104.5625 C 83.153802 104.44335 82.350107 104.3242 81.546875 104.20508 z M 78.181641 115.52148 C 77.366948 117.40177 76.338288 119.18081 75.255859 120.91797 C 73.96826 122.5647 72.641099 124.0988 75.271484 125.14648 C 77.286251 122.47532 79.032108 119.59502 80.398438 116.53906 C 79.659046 116.20017 78.921035 115.86037 78.181641 115.52148 z M 71.890625 125.47656 C 70.532985 127.02145 69.129323 128.53171 67.574219 129.88086 C 65.918329 131.16485 64.147906 132.24876 66.460938 133.94922 C 69.126376 131.95592 71.520502 129.62354 73.703125 127.11523 L 71.890625 125.47656 z M 63.085938 133.40234 C 61.408793 134.55332 59.669423 135.61852 57.861328 136.55078 C 55.901717 137.39214 53.87927 138.05637 55.740234 140.27734 C 58.783646 138.94393 61.70082 137.31932 64.435547 135.43164 C 63.985269 134.75543 63.536212 134.07856 63.085938 133.40234 z M 52.603516 138.98633 C 50.86624 139.61766 49.146326 140.29674 47.359375 140.7793 C 45.310373 141.44832 42.278221 141.33828 44.003906 144.19531 C 47.218877 143.46628 50.361686 142.4539 53.4375 141.27148 C 53.159251 140.50978 52.881762 139.74803 52.603516 138.98633 z M 40.015625 142.51367 C 38.693488 142.60837 36.951299 143.30317 35.65625 143.31445 C 33.525128 143.72499 30.40058 143.43482 31.939453 146.43359 C 35.145968 145.86053 38.364352 145.35282 41.558594 144.71484 C 41.428119 144.0318 41.296475 143.34906 41.166016 142.66602 C 40.850784 142.51634 40.456337 142.48211 40.015625 142.51367 z M 29.121094 144.44922 C 27.286104 144.74867 25.464273 145.1142 23.636719 145.45898 C 21.50991 145.904 18.382355 145.66953 19.972656 148.64258 C 23.162386 148.04725 26.342 147.39197 29.541016 146.84766 C 29.401119 146.04808 29.260999 145.24876 29.121094 144.44922 z M 16.546875 146.94727 C 14.973795 146.85456 12.689399 147.84778 10.951172 148.00781 C 8.8703717 148.32835 6.6062181 148.58772 8.0976562 151.1582 C 11.247746 150.39274 14.431999 149.7809 17.601562 149.10352 C 17.458634 148.42165 17.316771 147.74046 17.173828 147.05859 C 16.981716 146.99542 16.771601 146.96051 16.546875 146.94727 z M 4.8730469 149.40234 C 4.656402 149.35013 4.3548487 149.41536 3.9238281 149.64258 C 1.7932297 150.13235 -0.75432994 150.30092 0.2109375 153.16406 C 2.0497204 152.68515 3.8748753 152.15527 5.7207031 151.70508 C 5.4069881 150.75867 5.5229816 149.55899 4.8730469 149.40234 z M 75.996094 165.69531 C 68.582049 165.69531 62.552734 171.72463 62.552734 179.13867 C 62.552707 186.55271 68.582049 192.58203 75.996094 192.58203 C 83.410108 192.58203 89.439453 186.55271 89.439453 179.13867 C 89.439453 171.72463 83.410108 165.69531 75.996094 165.69531 z M 75.996094 167.38086 C 82.500126 167.38086 87.753906 172.63463 87.753906 179.13867 C 87.753906 185.64274 82.500126 190.89648 75.996094 190.89648 C 69.492034 190.89648 64.238281 185.64274 64.238281 179.13867 C 64.238281 172.63463 69.492034 167.38086 75.996094 167.38086 z M 59.048828 193.92188 C 55.939661 193.92188 53.400391 196.46114 53.400391 199.57031 C 53.400391 202.67945 55.939661 205.21094 59.048828 205.21094 C 62.157972 205.21094 64.695312 202.67945 64.695312 199.57031 C 64.695312 196.46114 62.157972 193.92188 59.048828 193.92188 z M 59.048828 195.49609 C 61.307859 195.49609 63.121094 197.31125 63.121094 199.57031 C 63.121094 201.82934 61.307859 203.64258 59.048828 203.64258 C 56.78977 203.64258 54.974609 201.82934 54.974609 199.57031 C 54.974609 197.31125 56.78977 195.49609 59.048828 195.49609 z M 43.328125 215.08984 A 3.3927822 8.5986175 38.54579 0 0 36.203125 220.11328 A 3.3927822 8.5986175 38.54579 0 0 33.1875 228.38086 L 26.804688 237.26562 A 9.1322108 3.5839239 73.181277 0 0 26.1875 228.75195 A 9.1322108 3.5839239 73.181277 0 0 20.091797 221.37891 A 9.1322108 3.5839239 73.181277 0 0 19.507812 231.41016 A 9.1322108 3.5839239 73.181277 0 0 25.603516 238.7832 A 9.1322108 3.5839239 73.181277 0 0 25.779297 238.69336 L 16.128906 252.12695 A 10.79511 4.1484244 74.408236 0 0 15.277344 243.20898 A 10.79511 4.1484244 74.408236 0 0 8.3476562 234.31445 A 10.79511 4.1484244 74.408236 0 0 7.4824219 246.13086 A 10.79511 4.1484244 74.408236 0 0 13.978516 255.11914 L 0.2109375 274.2832 L 0.2109375 276.88672 L 11.451172 261.24023 A 11.253735 4.8124742 1.8092484 0 0 22.552734 265.82227 A 11.253735 4.8124742 1.8092484 0 0 33.869141 261.32812 A 11.253735 4.8124742 1.8092484 0 0 22.685547 256.19727 A 11.253735 4.8124742 1.8092484 0 0 13.996094 257.69727 L 24.044922 243.70898 A 3.6036753 9.1331021 82.859732 0 0 33.65625 246.04492 A 3.6036753 9.1331021 82.859732 0 0 42.144531 241.30273 A 3.6036753 9.1331021 82.859732 0 0 32.519531 238.92383 A 3.6036753 9.1331021 82.859732 0 0 26.015625 240.96484 L 34.480469 229.18164 A 3.3927822 8.5986175 38.54579 0 0 41.652344 224.16406 A 3.3927822 8.5986175 38.54579 0 0 44.25 215.38672 A 3.3927822 8.5986175 38.54579 0 0 43.328125 215.08984 z M 55.341797 265.17773 C 32.427045 270.86467 12.921466 281.26845 0.2109375 295.99805 L 0.2109375 371.07812 C 51.830616 358.12442 61.154148 312.99656 55.341797 265.17773 z M 74.066406 323.33984 C 73.99049 323.33597 73.908956 323.33987 73.820312 323.35352 C 72.337014 323.58187 73.145008 325.56561 72.220703 326.74805 C 71.33696 327.87874 69.199614 327.56998 69.417969 328.98828 C 69.646324 330.47158 71.628114 329.66163 72.810547 330.58594 C 73.941239 331.46968 73.632478 333.60898 75.050781 333.39062 C 76.534081 333.16228 75.726086 331.17853 76.650391 329.99609 C 77.534133 328.8654 79.671458 329.17617 79.453125 327.75781 C 79.22477 326.27451 77.241027 327.08251 76.058594 326.1582 C 74.99857 325.32969 75.205151 323.39801 74.066406 323.33984 z "
         transform="matrix(0.33243946,0,0,0.33243946,25.683743,120.87294)"
         id="circle1255-6-9-3-7" />
      <path
         sodipodi:nodetypes="ccccccccccccccccccccccccccccc"
         inkscape:connector-curvature="0"
         id="path857"
         d="m 67.890625,334.46094 -12.855469,22.23047 -1.451172,-18.50586 c -0.627577,0.21838 -1.241265,0.45305 -1.863281,0.67773 l 1.630859,20.73633 -13.853515,23.95703 -15.669922,-31.25781 c -0.540777,0.34066 -1.088439,0.67611 -1.621094,1.02344 L 38.351562,385.53906 16.808594,422.79102 0.33007812,401.28516 v 3.13867 L 15.775391,424.57812 0.33007812,451.28516 v 3.80859 l 6.32812498,-10.94336 36.6074219,-0.2168 c 0.655124,-0.62904 1.292975,-1.26898 1.921875,-1.91601 l -37.4238281,0.22265 c 0,0 13.6288021,-23.56549 20.6738281,-35.74804 l 36.853516,-4.85938 -0.253907,-1.89258 -35.394531,4.66993 21.3125,-36.85547 20.535156,-3.64649 c 0.0027,-0.646 0.0113,-1.28911 0.0078,-1.9375 l -19.289063,3.41797 17.332032,-29.9707 z"
         style="fill:#ffffff;fill-opacity:1;fill-rule:evenodd;stroke:none;stroke-width:3.05802178px;stroke-linecap:butt;stroke-linejoin:miter;stroke-opacity:0.10638296"
         transform="matrix(0.26458333,0,0,0.26458333,25.666389,120.80684)" />
    </g>
  </g>
</svg>
