<svg height='300px' width='300px'  fill="#000000" xmlns="http://www.w3.org/2000/svg" viewBox="0 0 100 100" x="0px" y="0px"><title>•SET16-v3</title><path d="M62.78,35.2a1.559,1.559,0,0,0,1.181.1c.187-.067,4.7-1.565,6.77-5.434s.775-8.462.726-8.656a1.5,1.5,0,0,0-.743-.913,1.478,1.478,0,0,0-1.18-.105c-.2.057-4.713,1.555-6.771,5.434a10.111,10.111,0,0,0-1.079,3.566,14.175,14.175,0,0,0,.354,5.081A1.54,1.54,0,0,0,62.78,35.2ZM85.418,43.65c-1.534-3.66-5.693-7.563-9.99-7.752a15,15,0,0,0-5.074.873L69.577,37c-.521.147-1.013.3-1.494.452-1.77.568-3.049.988-4.642.526a12.469,12.469,0,0,1-2.664-1.2c-.443-.242-.905-.484-1.387-.716a10.507,10.507,0,0,0-4.248-1.051l-.826-.032h-.029a11.219,11.219,0,0,0-3.557.515,4.468,4.468,0,0,1,.252,4.3h0a15.5,15.5,0,0,1-3.342,4.481c.39.122.707.236.918.319l.062.024.06.026a4.5,4.5,0,0,1,2.3,6.063h0a15.5,15.5,0,0,1-3.342,4.481c.39.122.707.236.918.319l.062.024.06.026a4.5,4.5,0,0,1,2.3,6.063h0a15.042,15.042,0,0,1-4.955,5.745,38.8,38.8,0,0,0,4.495,7.049c1.248,1.535,2.969,3.344,5.319,3.755a5.921,5.921,0,0,0,1.043.094A11.313,11.313,0,0,0,61.1,77.192a8.306,8.306,0,0,1,3.235-.852A8.26,8.26,0,0,1,66.6,76.9a11.447,11.447,0,0,0,2.763.7c2.665.273,5.4-.979,8.161-3.7a32.76,32.76,0,0,0,8.919-18.585A21.96,21.96,0,0,0,85.418,43.65ZM35.871,82.025c-.734-.591-2.915-2.639-3.334-4.325a36.835,36.835,0,0,1-.353-7.735v-35.1a1.62,1.62,0,1,0-3.239,0V69.888c-.009.239-.257,5.792.448,8.593.762,3.039,4.077,5.773,4.458,6.068a1.616,1.616,0,1,0,2.02-2.524ZM21.205,58.237a11.124,11.124,0,0,0-7.481.261,1.293,1.293,0,0,0-.706.729,1.279,1.279,0,0,0,.031,1.02,10.978,10.978,0,0,0,5.34,5.24,8.7,8.7,0,0,0,3.161.56,12.207,12.207,0,0,0,4.312-.821,1.327,1.327,0,0,0,.713-.729,1.345,1.345,0,0,0-.03-1.02A11.128,11.128,0,0,0,21.205,58.237Zm26.92.99a1.293,1.293,0,0,0-.706-.729,11.12,11.12,0,0,0-7.48-.261,11.123,11.123,0,0,0-5.34,5.24,1.3,1.3,0,0,0,.683,1.749,12.207,12.207,0,0,0,4.312.821,8.7,8.7,0,0,0,3.161-.56,10.973,10.973,0,0,0,5.339-5.24A1.275,1.275,0,0,0,48.125,59.227Zm-26.92-11.9a11.117,11.117,0,0,0-7.481.261,1.293,1.293,0,0,0-.706.729,1.279,1.279,0,0,0,.031,1.02,10.978,10.978,0,0,0,5.34,5.24,8.719,8.719,0,0,0,3.161.56,12.207,12.207,0,0,0,4.312-.821,1.327,1.327,0,0,0,.713-.729,1.345,1.345,0,0,0-.03-1.02A11.128,11.128,0,0,0,21.205,47.324ZM43.789,54.08c-.017.009-.037.016-.054.026h0C43.752,54.1,43.772,54.089,43.789,54.08Zm4.305-4.746a1.275,1.275,0,0,0,.031-1.02,1.293,1.293,0,0,0-.706-.729,11.114,11.114,0,0,0-7.48-.261,11.123,11.123,0,0,0-5.34,5.24,1.3,1.3,0,0,0,.683,1.749,12.207,12.207,0,0,0,4.312.821,8.723,8.723,0,0,0,3.161-.56,7.965,7.965,0,0,0,.98-.468h0A11.482,11.482,0,0,0,48.094,49.334ZM30.5,28.227a1.328,1.328,0,0,0,.938-.4A12.225,12.225,0,0,0,33.756,24.1a8.722,8.722,0,0,0,.619-3.15,10.98,10.98,0,0,0-2.958-6.872,1.308,1.308,0,0,0-1.875,0A11.117,11.117,0,0,0,26.6,20.958a11.119,11.119,0,0,0,2.959,6.872A1.345,1.345,0,0,0,30.5,28.227Zm-9.291,8.184a11.117,11.117,0,0,0-7.481.261,1.293,1.293,0,0,0-.706.729,1.279,1.279,0,0,0,.031,1.02,10.978,10.978,0,0,0,5.34,5.24,8.719,8.719,0,0,0,3.161.56,12.207,12.207,0,0,0,4.312-.821,1.327,1.327,0,0,0,.713-.729,1.345,1.345,0,0,0-.03-1.02A11.128,11.128,0,0,0,21.205,36.411ZM23.462,25.87A11.12,11.12,0,0,0,16.1,24.5a1.308,1.308,0,0,0-1.039,1.561,10.975,10.975,0,0,0,4.073,6.275A8.709,8.709,0,0,0,22.1,33.568a12.214,12.214,0,0,0,4.387.136,1.3,1.3,0,0,0,1.047-1.559A11.123,11.123,0,0,0,23.462,25.87Zm10.551,7.277a1.329,1.329,0,0,0,.855.557,12.214,12.214,0,0,0,4.387-.136,8.709,8.709,0,0,0,2.964-1.233,10.975,10.975,0,0,0,4.073-6.275A1.308,1.308,0,0,0,45.253,24.5,11.12,11.12,0,0,0,37.9,25.87a11.123,11.123,0,0,0-4.074,6.275A1.341,1.341,0,0,0,34.013,33.147Zm9.776,10.02c-.017.009-.037.016-.054.026h0Zm-3.85-6.756a11.123,11.123,0,0,0-5.34,5.24,1.3,1.3,0,0,0,.683,1.749,12.207,12.207,0,0,0,4.312.821,8.723,8.723,0,0,0,3.161-.56,7.742,7.742,0,0,0,.979-.468h0a11.482,11.482,0,0,0,4.359-4.772,1.275,1.275,0,0,0,.031-1.02,1.293,1.293,0,0,0-.706-.729A11.114,11.114,0,0,0,39.939,36.411Z"></path></svg>