<?xml version="1.0" encoding="UTF-8" standalone="no"?>
<svg
   xmlns:dc="http://purl.org/dc/elements/1.1/"
   xmlns:cc="http://creativecommons.org/ns#"
   xmlns:rdf="http://www.w3.org/1999/02/22-rdf-syntax-ns#"
   xmlns:svg="http://www.w3.org/2000/svg"
   xmlns="http://www.w3.org/2000/svg"
   xmlns:sodipodi="http://sodipodi.sourceforge.net/DTD/sodipodi-0.dtd"
   xmlns:inkscape="http://www.inkscape.org/namespaces/inkscape"
   id="a816e8d7-4997-4ebd-a7b7-7af2120ae04f"
   data-name="Layer 1"
   width="55.48"
   height="177.33743"
   viewBox="0 0 55.48 177.33744"
   version="1.1"
   sodipodi:docname="undraw_creative_woman_v415.svg"
   inkscape:version="0.92.3 (2405546, 2018-03-11)">
  <metadata
     id="metadata97">
    <rdf:RDF>
      <cc:Work
         rdf:about="">
        <dc:format>image/svg+xml</dc:format>
        <dc:type
           rdf:resource="http://purl.org/dc/dcmitype/StillImage" />
      </cc:Work>
    </rdf:RDF>
  </metadata>
  <defs
     id="defs95">
    <clipPath
       id="clip1">
      <path
         inkscape:connector-curvature="0"
         d="m 10.105469,105.79297 5.328125,68.08984 c 0.183594,2.37891 2.203125,4.21094 4.589844,4.21094 h 15.25 c 2.386718,0 4.410156,-1.83203 4.59375,-4.21094 l 5.328124,-68.08984 5.878907,-6.953126 c 2.753906,-3.296875 4.40625,-7.503906 4.40625,-11.898438 V 50.335938 c 0,-1.648438 -0.734375,-3.296876 -2.019531,-4.210938 -6.980469,-5.855469 -14.699219,-9.519531 -16.167969,-10.433594 -0.183594,0 -0.367188,-0.183594 -0.367188,-0.367187 v -4.757813 c 0.734375,-1.464844 1.101563,-2.929687 1.285157,-4.390625 0.183593,0.179688 0.367187,0.179688 0.550781,0.179688 0.554687,0 1.472656,-0.730469 2.390625,-4.023438 C 42.070312,19.035156 41.519531,17.9375 40.785156,17.570312 43.355469,4.941406 37.476562,4.574219 37.476562,4.574219 c 0,0 -0.917968,-1.828125 -3.304687,-3.109375 C 32.699219,0.730469 30.863281,0 28.476562,0 28.109375,0 27.742188,0 27.375,0 c -0.921875,0 -1.839844,0.183594 -2.757812,0.550781 -1.101563,0.363281 -2.019532,0.914063 -2.9375,1.460938 -1.472657,0.917969 -2.390626,1.648437 -3.308594,2.746093 -1.46875,1.464844 -2.753906,3.296876 -3.304688,5.859376 -0.554687,2.011718 -0.554687,4.207031 0.367188,6.40625 0,0 -0.183594,0 -0.183594,0 -1.105469,0 -2.023438,0.730468 -0.921875,4.757812 0.921875,3.113281 1.65625,4.027344 2.390625,4.027344 0.183594,1.828125 0.917969,3.660156 1.835938,5.492187 v 4.023438 c 0,0.183593 -0.183594,0.367187 -0.367188,0.367187 C 16.71875,36.425781 9.003906,40.269531 2.019531,46.125 0.734375,47.222656 0,48.6875 0,50.335938 V 87.125 c 0,4.390625 1.46875,8.417969 4.226562,11.898438 z m 0,0"
         id="path2" />
    </clipPath>
  </defs>
  <sodipodi:namedview
     pagecolor="#ffffff"
     bordercolor="#666666"
     borderopacity="1"
     objecttolerance="10"
     gridtolerance="10"
     guidetolerance="10"
     inkscape:pageopacity="0"
     inkscape:pageshadow="2"
     inkscape:window-width="1360"
     inkscape:window-height="715"
     id="namedview93"
     showgrid="false"
     inkscape:zoom="1.2684675"
     inkscape:cx="18.704991"
     inkscape:cy="8.9938244"
     inkscape:window-x="-8"
     inkscape:window-y="-8"
     inkscape:window-maximized="1"
     inkscape:current-layer="a816e8d7-4997-4ebd-a7b7-7af2120ae04f" />
  <title
     id="title2">creative woman</title>
  <g
     id="g1114"
     transform="matrix(0.27397326,0,0,0.27397261,-98.25055,-26.883182)">
    <rect
       y="98.123611"
       x="358.61365"
       height="647.28162"
       width="202.50151"
       id="rect1063"
       style="opacity:1;fill:#97c14b;fill-opacity:1;stroke:none;stroke-width:13.66714382;stroke-linecap:round;stroke-linejoin:round;stroke-miterlimit:4;stroke-dasharray:none;stroke-dashoffset:0;stroke-opacity:1;paint-order:markers stroke fill" />
    <rect
       id="rect10"
       height="58.850842"
       width="67.922951"
       y="163.38797"
       x="408.88513"
       style="fill:#ff6584" />
    <rect
       id="rect12"
       height="58.850842"
       width="67.922951"
       y="163.57677"
       x="408.94568"
       style="opacity:0.1" />
    <path
       id="path14"
       transform="translate(-129.75,-77.64742)"
       d="m 503.17015,432.97542 -9.24453,75.47173 c 0,0 -12.73017,36.37191 12.124,42.58545 24.85417,6.21354 1.97015,-49.55674 1.97015,-49.55674 l 9.54762,-69.25819 z"
       inkscape:connector-curvature="0"
       style="fill:#ffc1c7" />
    <path
       id="path16"
       transform="translate(-129.75,-77.64742)"
       d="m 525.5995,365.83893 c 0,0 -5.75889,71.37988 -6.51664,71.37988 -0.57741,0 -5.37091,0.3516 -11.17072,0.65318 -1.81859,0.094 -3.7342,0.18337 -5.65129,0.25612 -8.03213,0.3031 -1.5155,-11.06312 -1.06085,-11.82087 0.45465,-0.75775 -1.667,-7.729 -5.15269,-13.48792 -3.48569,-5.75892 1.2124,-1.8186 4.698,-6.36509 3.4856,-4.54649 0.3031,-2.42479 -4.09184,-6.062 -4.39494,-3.63721 2.57635,-4.84959 6.21354,-6.36509 3.63719,-1.5155 -0.15155,-1.97014 -4.24339,-4.54649 -4.09184,-2.57635 -0.6062,-14.24566 0,-37.88741 a 77.67014,77.67014 0 0 1 8.45193,-32.88627 54.44582,54.44582 0 0 1 4.12669,-6.97129 l 8.94143,-0.75775 c 0,0 4.09184,16.36737 4.39494,18.186 0.3031,1.81863 1.06089,36.675 1.06089,36.675 z"
       inkscape:connector-curvature="0"
       style="fill:#2f2e41" />
    <path
       id="path18"
       transform="translate(-129.75,-77.64742)"
       d="m 548.93814,241.26512 c 0,0 4.39494,37.58431 -1.36394,41.06995 -5.75888,3.48564 -8.18369,14.24567 -8.18369,14.24567 l 21.52005,11.21467 36.675,-7.12283 -1.364,-18.48906 c 0,0 -17.57976,-1.36395 -13.94257,-10.30537 a 104.22978,104.22978 0 0 0 5.30424,-18.03441 z"
       inkscape:connector-curvature="0"
       style="fill:#ffc1c7" />
    <path
       id="path20"
       transform="translate(-129.75,-77.64742)"
       d="m 548.93814,241.26512 c 0,0 4.39494,37.58431 -1.36394,41.06995 -5.75888,3.48564 -8.18369,14.24567 -8.18369,14.24567 l 21.52005,11.21467 36.675,-7.12283 -1.364,-18.48906 c 0,0 -17.57976,-1.36395 -13.94257,-10.30537 a 104.22978,104.22978 0 0 0 5.30424,-18.03441 z"
       inkscape:connector-curvature="0"
       style="opacity:0.1" />
    <path
       id="path22"
       transform="translate(-129.75,-77.64742)"
       d="m 573.33764,628.01982 c -2.40746,7.471 -1.06069,42.63277 -0.35049,57.7619 q 0.33937,7.22967 -0.006,14.46516 l -1.61358,34.00924 0.0394,1.03055 1.93075,50.19323 -18.186,-2.12169 -1.364,-27.43049 c 0,0 -1.68828,-6.56514 -4.0706,-16.44617 -6.47727,-26.85762 -18.086,-78.20417 -14.87311,-88.72928 4.39494,-14.39722 -6.51663,-68.0458 -6.51663,-68.0458 l 38.19051,-6.81973 c 0,0 10.10427,41.94053 6.81983,52.13308 z"
       inkscape:connector-curvature="0"
       style="fill:#ffc1c7" />
    <path
       transform="translate(-129.75,-77.64742)"
       id="path24"
       d="m 663.35813,791.63487 -10.60848,6.062 c 0,0 -19.2468,-7.42594 -20.30765,-7.729 -1.06085,-0.30306 -2.27325,-16.21581 -2.27325,-16.21581 0,0 -2.5036,-16.328 -5.64522,-33.03782 -2.21264,-11.77237 -4.74052,-23.73269 -6.9334,-30.30993 -5.30423,-15.91272 -4.698,-68.95509 -5.30423,-72.44073 -0.60623,-3.48564 -19.24681,-68.0458 -19.24681,-68.0458 0,0 40.46376,-7.57748 45.61644,-3.031 5.15268,4.54648 10.00228,59.40746 9.69918,71.07679 -0.3031,11.66933 1.364,82.13991 1.364,82.13991 0,0 0.20764,10.2478 0.5319,21.17451 0.23043,7.723 0.51836,15.78392 0.83205,20.80474 a 30.14858,30.14858 0 0 0 8.63833,19.2468 z"
       inkscape:connector-curvature="0"
       style="fill:#ffc1c7" />
    <path
       transform="translate(-129.75,-77.64742)"
       id="path26"
       d="m 646.53612,789.21008 c 0,0 -10.45693,-13.791 13.94256,-12.73018 0,0 2.27325,2.4248 6.66819,8.33524 4.39494,5.91044 33.03782,28.18823 18.6406,32.43162 -14.39722,4.24339 -32.92648,6.6258 -38.53747,2.35485 a 62.95259,62.95259 0 0 1 -25,1 c 0,0 1.70522,-27.45124 3.06916,-30.63379 1.36394,-3.18255 2.87945,-19.2468 2.87945,-19.2468 l 16.51891,21.0654 z"
       inkscape:connector-curvature="0"
       style="fill:#2f2e41" />
    <circle
       id="circle28"
       r="31.06768"
       cy="154.67627"
       cx="444.80002"
       style="fill:#ffc1c7" />
    <path
       id="path30"
       transform="translate(-129.75,-77.64742)"
       d="m 525.5995,365.83893 c 0,0 -5.75889,71.37988 -6.51664,71.37988 -0.57741,0 -5.37091,0.3516 -11.17072,0.65318 a 5.74967,5.74967 0 0 1 1.16844,-1.86558 c 3.78875,-3.48564 5.60734,-29.55218 5.60734,-29.55218 l -5.15269,-46.98039 4.47072,-40.99418 c 2.27931,-4.47071 -2.80367,-6.744 -2.80367,-6.744 l 8.94143,-0.75775 c 0,0 4.09184,16.36737 4.39494,18.186 0.3031,1.81863 1.06085,36.67502 1.06085,36.67502 z"
       inkscape:connector-curvature="0"
       style="opacity:0.1" />
    <path
       transform="translate(-129.75,-77.64742)"
       id="path32"
       d="m 624.10677,289.60945 c 0,0 -28.79444,-11.82087 -30.91613,-10.76 -2.12169,1.06087 -7.88058,5.30424 -7.88058,5.30424 0,0 -13.48792,14.09411 -31.67388,10.00227 0,0 -6.21353,-3.031 -6.062,-11.82087 0,0 -18.94371,10.15383 -24.85415,16.822 -5.91044,6.66817 -11.51777,12.57862 -11.51777,12.57862 l 2.87944,47.73814 5.15269,46.98039 c 0,0 -1.8186,26.06654 -5.60734,29.55218 -3.78874,3.48564 -8.63833,33.644 -3.031,82.74611 5.60733,49.10211 -5.91044,65.3179 0.75775,69.71284 6.66819,4.39494 57.58887,1.5155 86.9895,2.87944 29.40063,1.36394 47.73814,-6.81973 46.22264,-8.94142 -1.5155,-2.12169 -8.18368,-78.19962 -3.18254,-99.71967 5.00114,-21.52005 1.21239,-66.68185 1.21239,-66.68185 z"
       inkscape:connector-curvature="0"
       style="fill:#2f2e41" />
    <path
       id="path34"
       transform="translate(-129.75,-77.64742)"
       d="m 615.77154,425.701 c 0,0 -7.88058,61.52916 -13.33637,67.13649 -5.45579,5.60733 -7.42593,50.16294 2.12169,50.16294 9.54762,0 18.186,-49.25364 18.186,-49.25364 L 637.29159,427.065 Z"
       inkscape:connector-curvature="0"
       style="fill:#ffc1c7" />
    <path
       id="path36"
       transform="translate(-129.75,-77.64742)"
       d="m 546.21025,783.05511 c 0,0 19.70145,-13.33637 30.15838,0 0,0 4.39494,29.70373 0,33.03782 -4.39494,3.33409 -34.40177,8.94143 -35.008,0 -0.60623,-8.94143 1.5155,-13.03327 1.5155,-13.03327 l 3.33409,-12.124 z"
       inkscape:connector-curvature="0"
       style="fill:#2f2e41" />
    <path
       id="path38"
       transform="translate(-129.75,-77.64742)"
       d="m 621.45465,297.71736 -0.98507,-5.22846 c 0,0 22.12624,23.79329 25.76344,44.404 3.6372,20.61071 11.66932,41.97926 6.062,44.8587 -5.60732,2.87944 -10.15382,1.97015 -7.57748,6.66819 2.57634,4.69804 3.33409,10.30537 0.75775,12.124 -2.57634,1.81863 -4.39494,3.33409 -3.48564,7.12283 0.9093,3.78874 0.90929,11.51777 -0.9093,13.18482 -1.81859,1.66705 -6.36509,15.00342 -6.36509,15.00342 0,0 -18.48905,-6.062 -25.46034,-1.97015 -6.97129,4.09185 -1.06092,-15.91271 -1.06092,-15.91271 0,0 -1.51549,-8.03213 -3.78874,-9.39608 -2.27325,-1.36395 -3.63719,-3.94029 -0.75774,-6.66819 2.87945,-2.7279 5.15268,-2.72789 1.21239,-6.51663 -3.94029,-3.78874 -9.24453,-2.1217 -3.78874,-6.062 5.45579,-3.9403 8.33523,-5.75888 4.698,-9.54762 -3.63723,-3.78874 -6.81973,-5.91044 -4.24339,-9.24453 2.57634,-3.33409 7.1987,-76.15368 19.92887,-72.81959 z"
       inkscape:connector-curvature="0"
       style="opacity:0.1" />
    <path
       id="path40"
       transform="translate(-129.75,-77.64742)"
       d="m 618.95408,290.51875 5.15269,-0.9093 c 0,0 22.12625,23.7933 25.76344,44.40405 3.63719,20.61075 11.66932,41.97925 6.062,44.8587 -5.60732,2.87945 -10.15382,1.97014 -7.57748,6.66818 2.57634,4.69804 3.33409,10.30538 0.75775,12.124 -2.57634,1.81862 -4.39494,3.3341 -3.48564,7.12284 0.9093,3.78874 0.9093,11.51777 -0.9093,13.18482 -1.8186,1.66705 -6.36509,15.00341 -6.36509,15.00341 0,0 -18.48905,-6.062 -25.46034,-1.97014 -6.97129,4.09186 -1.06084,-15.91272 -1.06084,-15.91272 0,0 -1.5155,-8.03213 -3.78875,-9.39608 -2.27325,-1.36395 -3.63719,-3.94029 -0.75774,-6.66818 2.87945,-2.72789 5.15268,-2.72789 1.21239,-6.51663 -3.94029,-3.78874 -9.24452,-2.1217 -3.78874,-6.062 5.45578,-3.9403 8.33523,-5.75889 4.698,-9.54763 -3.63723,-3.78874 -6.81973,-5.91043 -4.24339,-9.24453 2.57634,-3.3341 1.06087,-80.47288 13.79104,-77.13879 z"
       inkscape:connector-curvature="0"
       style="fill:#2f2e41" />
    <path
       id="path42"
       transform="translate(-129.75,-77.64742)"
       d="m 548.39289,196.62169 a 32.84253,32.84253 0 0 0 -8.24278,9.25294 41.51485,41.51485 0 0 0 -2.61386,6.36343 c -2.45973,7.07907 -8.5742,14.24875 -5.98634,21.282 0.73844,2.00691 1.88982,4.12294 1.22785,6.15635 -0.5879,1.80585 -2.40247,2.85968 -3.71492,4.23234 -2.817,2.9462 -3.29049,7.36678 -3.46257,11.43934 -0.31515,7.45825 3.78583,16.24736 8.74106,21.83041 a 30.50342,30.50342 0 0 1 2.98207,3.37593 7.91354,7.91354 0 0 1 0.9341,6.50992 l 7.21854,-1.50658 a 59.87382,59.87382 0 0 1 0.24359,8.02037 7.48738,7.48738 0 0 0 7.93957,-5.13115 21.4382,21.4382 0 0 0 1.98309,5.47942 28.2832,28.2832 0 0 0 4.79438,-8.87908 25.386,25.386 0 0 0 0.861,-12.81883 54.35637,54.35637 0 0 0 -3.108,-9.1114 c -2.55063,-6.44608 -4.63356,-13.06564 -6.71409,-19.67843 -1.08058,-3.43451 -2.1742,-6.98068 -1.8467,-10.56624 l 2.56494,-0.279 a 12.24691,12.24691 0 0 1 0.80956,-4.1395 15.18732,15.18732 0 0 1 4.2896,1.61442 l 2.95685,-7.50284 c 1.95151,2.02389 4.75216,2.94 7.43386,3.78435 l 10.193,3.20944 0.062,-2.01725 a 52.31652,52.31652 0 0 0 14.50451,9.09816 3.29969,3.29969 0 0 1 -0.71633,-2.6256 c 2.51185,4.49984 1.50736,10.10569 -0.0428,15.02044 -1.5502,4.91475 -3.60686,9.91832 -2.98258,15.03381 0.46691,3.82593 2.4268,7.4849 2.06345,11.32206 -0.17893,1.88957 -0.918,3.68769 -1.14779,5.57175 -0.54811,4.49346 1.81446,8.77244 4.095,12.68275 l 4.4346,-6.09015 a 23.31962,23.31962 0 0 1 5.594,-6.0299 c 2.359,-1.56391 5.283,-2.266 7.3387,-4.21141 3.66981,-3.47284 3.20387,-9.38933 2.01045,-14.29889 -0.63441,-2.60987 -1.40208,-5.25676 -1.16884,-7.93248 0.39538,-4.536 3.54732,-8.289 5.32252,-12.48181 a 21.66862,21.66862 0 0 0 -1.2143,-19.04889 c -2.20273,-3.77826 -5.53113,-6.82116 -7.60691,-10.67063 -2.06636,-3.832 -2.85459,-8.39151 -5.68593,-11.6987 a 19.73565,19.73565 0 0 0 -4.76629,-3.7975 62.13613,62.13613 0 0 0 -26.43491,-8.62427 c -8.86705,-0.92698 -16.34749,2.2597 -23.14231,7.8609 z"
       inkscape:connector-curvature="0"
       style="fill:#ff6584" />
  </g>
  <g
     id="surface1"
     transform="translate(-7.5363744e-8,-1.6625699)">
    <g
       style="clip-rule:nonzero"
       clip-path="url(#clip1)"
       id="g9" />
  </g>
</svg>
