<?xml version="1.0" encoding="UTF-8" standalone="no"?>
<svg
   xmlns:dc="http://purl.org/dc/elements/1.1/"
   xmlns:cc="http://creativecommons.org/ns#"
   xmlns:rdf="http://www.w3.org/1999/02/22-rdf-syntax-ns#"
   xmlns:svg="http://www.w3.org/2000/svg"
   xmlns="http://www.w3.org/2000/svg"
   xmlns:sodipodi="http://sodipodi.sourceforge.net/DTD/sodipodi-0.dtd"
   xmlns:inkscape="http://www.inkscape.org/namespaces/inkscape"
   inkscape:version="1.0beta1 (32d4812, 2019-09-19)"
   sodipodi:docname="undraw_empty_street_sfxm.svg"
   version="1.1"
   viewBox="0 0 997.86122 450.8081"
   height="450.8081"
   width="997.86122"
   data-name="Layer 1"
   id="be3e1a43-0c7b-454d-900a-5620992e061d">
  <metadata
     id="metadata970">
    <rdf:RDF>
      <cc:Work
         rdf:about="">
        <dc:format>image/svg+xml</dc:format>
        <dc:type
           rdf:resource="http://purl.org/dc/dcmitype/StillImage" />
      </cc:Work>
    </rdf:RDF>
  </metadata>
  <defs
     id="defs968" />
  <sodipodi:namedview
     inkscape:current-layer="be3e1a43-0c7b-454d-900a-5620992e061d"
     inkscape:window-maximized="0"
     inkscape:window-y="23"
     inkscape:window-x="0"
     inkscape:cy="953.55226"
     inkscape:cx="1209.2167"
     inkscape:zoom="0.1700891"
     showgrid="false"
     id="namedview966"
     inkscape:window-height="670"
     inkscape:window-width="1366"
     inkscape:pageshadow="2"
     inkscape:pageopacity="0"
     guidetolerance="10"
     gridtolerance="10"
     objecttolerance="10"
     borderopacity="1"
     inkscape:document-rotation="0"
     bordercolor="#666666"
     pagecolor="#ffffff" />
  <rect
     inkscape:export-ydpi="48.099998"
     inkscape:export-xdpi="48.099998"
     inkscape:export-filename="/Users/MacBook1/silent.png"
     id="rect833"
     fill="#f2f2f2"
     height="104.39806"
     width="30.15944"
     y="181.55804"
     x="871.99152" />
  <polygon
     inkscape:export-ydpi="48.099998"
     inkscape:export-xdpi="48.099998"
     inkscape:export-filename="/Users/MacBook1/silent.png"
     id="polygon835"
     fill="#f2f2f2"
     points="922.068 266.317 848.715 179.052 701.475 180.398 612.156 267.396 613.961 268.556 613.316 268.556 613.316 449.513 921.871 449.513 921.871 268.556 922.068 266.317" />
  <polygon
     inkscape:export-ydpi="48.099998"
     inkscape:export-xdpi="48.099998"
     inkscape:export-filename="/Users/MacBook1/silent.png"
     id="polygon837"
     fill="#e6e6e6"
     points="848.792 179.238 757.154 286.674 757.154 449.513 921.871 449.513 921.871 266.236 848.792 179.238" />
  <rect
     inkscape:export-ydpi="48.099998"
     inkscape:export-xdpi="48.099998"
     inkscape:export-filename="/Users/MacBook1/silent.png"
     id="rect839"
     fill="#3f3d56"
     height="29.73333"
     width="33.6394"
     y="359.46083"
     x="823.27242" />
  <rect
     inkscape:export-ydpi="48.099998"
     inkscape:export-xdpi="48.099998"
     inkscape:export-filename="/Users/MacBook1/silent.png"
     id="rect841"
     fill="#3f3d56"
     height="29.26181"
     width="33.6394"
     y="307.99568"
     x="823.27242" />
  <rect
     inkscape:export-ydpi="48.099998"
     inkscape:export-xdpi="48.099998"
     inkscape:export-filename="/Users/MacBook1/silent.png"
     id="rect843"
     fill="#fff"
     height="29.73333"
     width="33.6394"
     y="359.46083"
     x="823.27242" />
  <rect
     inkscape:export-ydpi="48.099998"
     inkscape:export-xdpi="48.099998"
     inkscape:export-filename="/Users/MacBook1/silent.png"
     id="rect845"
     fill="#fff"
     height="29.26181"
     width="33.6394"
     y="307.99568"
     x="823.27242" />
  <rect
     inkscape:export-ydpi="48.099998"
     inkscape:export-xdpi="48.099998"
     inkscape:export-filename="/Users/MacBook1/silent.png"
     id="rect847"
     fill="#fff"
     height="29.73333"
     width="33.6394"
     y="351.57128"
     x="673.77661" />
  <rect
     inkscape:export-ydpi="48.099998"
     inkscape:export-xdpi="48.099998"
     inkscape:export-filename="/Users/MacBook1/silent.png"
     id="rect849"
     fill="#fff"
     height="29.26181"
     width="33.6394"
     y="300.10613"
     x="673.77661" />
  <rect
     inkscape:export-ydpi="48.099998"
     inkscape:export-xdpi="48.099998"
     inkscape:export-filename="/Users/MacBook1/silent.png"
     id="rect851"
     fill="#f2f2f2"
     height="104.39806"
     width="30.15944"
     y="181.55804"
     x="633.99152" />
  <polygon
     inkscape:export-ydpi="48.099998"
     inkscape:export-xdpi="48.099998"
     inkscape:export-filename="/Users/MacBook1/silent.png"
     id="polygon853"
     fill="#f2f2f2"
     points="684.068 266.317 610.715 179.052 463.475 180.398 374.156 267.396 375.961 268.556 375.316 268.556 375.316 449.513 683.871 449.513 683.871 268.556 684.068 266.317" />
  <polygon
     inkscape:export-ydpi="48.099998"
     inkscape:export-xdpi="48.099998"
     inkscape:export-filename="/Users/MacBook1/silent.png"
     id="polygon855"
     fill="#e6e6e6"
     points="610.792 179.238 519.154 286.674 519.154 449.513 683.871 449.513 683.871 266.236 610.792 179.238" />
  <rect
     inkscape:export-ydpi="48.099998"
     inkscape:export-xdpi="48.099998"
     inkscape:export-filename="/Users/MacBook1/silent.png"
     id="rect857"
     fill="#3f3d56"
     height="29.73333"
     width="33.6394"
     y="359.46083"
     x="585.27242" />
  <rect
     inkscape:export-ydpi="48.099998"
     inkscape:export-xdpi="48.099998"
     inkscape:export-filename="/Users/MacBook1/silent.png"
     id="rect859"
     fill="#3f3d56"
     height="29.26181"
     width="33.6394"
     y="307.99568"
     x="585.27242" />
  <rect
     inkscape:export-ydpi="48.099998"
     inkscape:export-xdpi="48.099998"
     inkscape:export-filename="/Users/MacBook1/silent.png"
     id="rect861"
     fill="#fff"
     height="29.73333"
     width="33.6394"
     y="359.46083"
     x="585.27242" />
  <rect
     inkscape:export-ydpi="48.099998"
     inkscape:export-xdpi="48.099998"
     inkscape:export-filename="/Users/MacBook1/silent.png"
     id="rect863"
     fill="#fff"
     height="29.26181"
     width="33.6394"
     y="307.99568"
     x="585.27242" />
  <rect
     inkscape:export-ydpi="48.099998"
     inkscape:export-xdpi="48.099998"
     inkscape:export-filename="/Users/MacBook1/silent.png"
     id="rect865"
     fill="#fff"
     height="29.73333"
     width="33.6394"
     y="351.57128"
     x="435.77661" />
  <rect
     inkscape:export-ydpi="48.099998"
     inkscape:export-xdpi="48.099998"
     inkscape:export-filename="/Users/MacBook1/silent.png"
     id="rect867"
     fill="#fff"
     height="29.26181"
     width="33.6394"
     y="300.10613"
     x="435.77661" />
  <rect
     inkscape:export-ydpi="48.099998"
     inkscape:export-xdpi="48.099998"
     inkscape:export-filename="/Users/MacBook1/silent.png"
     id="rect869"
     fill="#f2f2f2"
     height="139.50112"
     width="40.30032"
     y="91.46021"
     x="380.1536" />
  <polygon
     inkscape:export-ydpi="48.099998"
     inkscape:export-xdpi="48.099998"
     inkscape:export-filename="/Users/MacBook1/silent.png"
     id="polygon871"
     fill="#f2f2f2"
     points="447.068 204.718 349.051 88.112 152.302 89.91 32.951 206.161 35.362 207.711 34.501 207.711 34.501 449.513 446.804 449.513 446.804 207.711 447.068 204.718" />
  <polygon
     inkscape:export-ydpi="48.099998"
     inkscape:export-xdpi="48.099998"
     inkscape:export-filename="/Users/MacBook1/silent.png"
     id="polygon873"
     fill="#e6e6e6"
     points="349.153 88.36 226.702 231.921 226.702 449.513 446.804 449.513 446.804 204.611 349.153 88.36" />
  <rect
     inkscape:export-ydpi="48.099998"
     inkscape:export-xdpi="48.099998"
     inkscape:export-filename="/Users/MacBook1/silent.png"
     id="rect875"
     fill="#3f3d56"
     height="39.73094"
     width="44.95039"
     y="329.18147"
     x="315.05306" />
  <rect
     inkscape:export-ydpi="48.099998"
     inkscape:export-xdpi="48.099998"
     inkscape:export-filename="/Users/MacBook1/silent.png"
     id="rect877"
     fill="#3f3d56"
     height="39.10088"
     width="44.95039"
     y="260.41156"
     x="315.05306" />
  <rect
     inkscape:export-ydpi="48.099998"
     inkscape:export-xdpi="48.099998"
     inkscape:export-filename="/Users/MacBook1/silent.png"
     id="rect879"
     fill="#fff"
     height="39.73094"
     width="44.95039"
     y="329.18147"
     x="315.05306" />
  <rect
     inkscape:export-ydpi="48.099998"
     inkscape:export-xdpi="48.099998"
     inkscape:export-filename="/Users/MacBook1/silent.png"
     id="rect881"
     fill="#fff"
     height="39.10088"
     width="44.95039"
     y="260.41156"
     x="315.05306" />
  <rect
     inkscape:export-ydpi="48.099998"
     inkscape:export-xdpi="48.099998"
     inkscape:export-filename="/Users/MacBook1/silent.png"
     id="rect883"
     fill="#fff"
     height="39.73094"
     width="44.95039"
     y="318.63912"
     x="115.29041" />
  <rect
     inkscape:export-ydpi="48.099998"
     inkscape:export-xdpi="48.099998"
     inkscape:export-filename="/Users/MacBook1/silent.png"
     id="rect885"
     fill="#fff"
     height="39.10088"
     width="44.95039"
     y="249.8692"
     x="115.29041" />
  <rect
     inkscape:export-ydpi="48.099998"
     inkscape:export-xdpi="48.099998"
     inkscape:export-filename="/Users/MacBook1/silent.png"
     id="rect887"
     fill="#3f3d56"
     height="2"
     width="963.95079"
     y="448.61997" />
  <ellipse
     inkscape:export-ydpi="48.099998"
     inkscape:export-xdpi="48.099998"
     inkscape:export-filename="/Users/MacBook1/silent.png"
     id="ellipse889"
     fill="#3f3d56"
     ry="59.37437"
     rx="29.09932"
     cy="352.47204"
     cx="151.87223" />
  <path
     inkscape:export-ydpi="48.099998"
     inkscape:export-xdpi="48.099998"
     inkscape:export-filename="/Users/MacBook1/silent.png"
     id="path891"
     fill="#97c14b"
     transform="translate(-101.06939 -224.59595)"
     d="M255.62882,674.25425c-11.65458-69.92526-.11734-139.59789.00056-140.29293l2.267.384c-.11734.69167-11.58834,69.99825.00056,139.53164Z" />
  <rect
     inkscape:export-ydpi="48.099998"
     inkscape:export-xdpi="48.099998"
     inkscape:export-filename="/Users/MacBook1/silent.png"
     id="rect893"
     fill="#97c14b"
     transform="translate(-339.58156 -31.50095) rotate(-28.1416)"
     height="2.29972"
     width="29.84136"
     y="571.20214"
     x="251.0257" />
  <rect
     inkscape:export-ydpi="48.099998"
     inkscape:export-xdpi="48.099998"
     inkscape:export-filename="/Users/MacBook1/silent.png"
     id="rect895"
     fill="#97c14b"
     transform="translate(-486.12468 291.37147) rotate(-61.84204)"
     height="29.84239"
     width="2.29972"
     y="564.48509"
     x="237.02319" />
  <ellipse
     inkscape:export-ydpi="48.099998"
     inkscape:export-xdpi="48.099998"
     inkscape:export-filename="/Users/MacBook1/silent.png"
     id="ellipse897"
     fill="#97c14b"
     ry="116.12927"
     rx="56.91484"
     cy="260.90342"
     cx="81.9552" />
  <path
     inkscape:export-ydpi="48.099998"
     inkscape:export-xdpi="48.099998"
     inkscape:export-filename="/Users/MacBook1/silent.png"
     id="path899"
     fill="#3f3d56"
     transform="translate(-101.06939 -224.59595)"
     d="M189.364,675.40405c-22.76459-136.58529-.22963-272.67316.00056-274.03181l2.267.384c-.22962,1.35528-22.69834,137.0771.00057,273.27052Z" />
  <rect
     inkscape:export-ydpi="48.099998"
     inkscape:export-xdpi="48.099998"
     inkscape:export-filename="/Users/MacBook1/silent.png"
     id="rect901"
     fill="#3f3d56"
     transform="translate(-301.0624 -69.97216) rotate(-28.1416)"
     height="2.29972"
     width="58.36761"
     y="475.12522"
     x="179.27648" />
  <rect
     inkscape:export-ydpi="48.099998"
     inkscape:export-xdpi="48.099998"
     inkscape:export-filename="/Users/MacBook1/silent.png"
     id="rect903"
     fill="#3f3d56"
     transform="translate(-451.74248 170.111) rotate(-61.84258)"
     height="58.36761"
     width="2.29972"
     y="460.88882"
     x="152.98936" />
  <ellipse
     inkscape:export-ydpi="48.099998"
     inkscape:export-xdpi="48.099998"
     inkscape:export-filename="/Users/MacBook1/silent.png"
     id="ellipse905"
     fill="#97c14b"
     ry="158.91374"
     rx="77.88347"
     cy="191.008"
     cx="216.75351" />
  <path
     inkscape:export-ydpi="48.099998"
     inkscape:export-xdpi="48.099998"
     inkscape:export-filename="/Users/MacBook1/silent.png"
     id="path907"
     fill="#3f3d56"
     transform="translate(-101.06939 -224.59595)"
     d="M326.9161,675.40405c-31.1399-186.83717-.3144-372.9922.00056-374.85051l2.267.384c-.3144,1.85494-31.07366,187.64393.00056,374.08922Z" />
  <rect
     inkscape:export-ydpi="48.099998"
     inkscape:export-xdpi="48.099998"
     inkscape:export-filename="/Users/MacBook1/silent.png"
     id="rect909"
     fill="#3f3d56"
     transform="translate(-249.45002 -10.63875) rotate(-28.1416)"
     height="2.29972"
     width="79.87126"
     y="401.83114"
     x="312.69421" />
  <rect
     inkscape:export-ydpi="48.099998"
     inkscape:export-xdpi="48.099998"
     inkscape:export-filename="/Users/MacBook1/silent.png"
     id="rect911"
     fill="#3f3d56"
     transform="translate(-326.03583 243.55793) rotate(-61.84329)"
     height="79.87126"
     width="2.29972"
     y="381.92603"
     x="277.14586" />
  <ellipse
     inkscape:export-ydpi="48.099998"
     inkscape:export-xdpi="48.099998"
     inkscape:export-filename="/Users/MacBook1/silent.png"
     id="ellipse913"
     fill="#3f3d56"
     ry="59.37437"
     rx="29.09932"
     cy="352.47204"
     cx="871.02934" />
  <path
     inkscape:export-ydpi="48.099998"
     inkscape:export-xdpi="48.099998"
     inkscape:export-filename="/Users/MacBook1/silent.png"
     id="path915"
     fill="#97c14b"
     transform="translate(-101.06939 -224.59595)"
     d="M969.41153,674.25425c11.65459-69.92526.11734-139.59789-.00056-140.29293l-2.267.384c.11733.69167,11.58833,69.99825-.00056,139.53164Z" />
  <rect
     inkscape:export-ydpi="48.099998"
     inkscape:export-xdpi="48.099998"
     inkscape:export-filename="/Users/MacBook1/silent.png"
     id="rect917"
     fill="#97c14b"
     transform="translate(-99.02545 923.51928) rotate(-61.8584)"
     height="29.84136"
     width="2.29972"
     y="557.43132"
     x="957.94412" />
  <rect
     inkscape:export-ydpi="48.099998"
     inkscape:export-xdpi="48.099998"
     inkscape:export-filename="/Users/MacBook1/silent.png"
     id="rect919"
     fill="#97c14b"
     transform="translate(-257.69773 309.6834) rotate(-28.15796)"
     height="2.29972"
     width="29.84239"
     y="578.25643"
     x="971.94611" />
  <ellipse
     inkscape:export-ydpi="48.099998"
     inkscape:export-xdpi="48.099998"
     inkscape:export-filename="/Users/MacBook1/silent.png"
     id="ellipse921"
     fill="#97c14b"
     ry="116.12927"
     rx="56.91484"
     cy="260.90342"
     cx="940.94638" />
  <path
     inkscape:export-ydpi="48.099998"
     inkscape:export-xdpi="48.099998"
     inkscape:export-filename="/Users/MacBook1/silent.png"
     id="path923"
     fill="#3f3d56"
     transform="translate(-101.06939 -224.59595)"
     d="M1035.67632,675.40405c22.76459-136.58529.22962-272.67316-.00056-274.03181l-2.267.384c.22962,1.35528,22.69834,137.0771-.00056,273.27052Z" />
  <rect
     inkscape:export-ydpi="48.099998"
     inkscape:export-xdpi="48.099998"
     inkscape:export-filename="/Users/MacBook1/silent.png"
     id="rect925"
     fill="#3f3d56"
     transform="translate(16.06635 923.44761) rotate(-61.8584)"
     height="58.36761"
     width="2.29972"
     y="447.09128"
     x="1015.43021" />
  <rect
     inkscape:export-ydpi="48.099998"
     inkscape:export-xdpi="48.099998"
     inkscape:export-filename="/Users/MacBook1/silent.png"
     id="rect927"
     fill="#3f3d56"
     transform="translate(-205.59609 338.75568) rotate(-28.15742)"
     height="2.29972"
     width="58.36761"
     y="488.92276"
     x="1041.71733" />
  <ellipse
     inkscape:export-ydpi="48.099998"
     inkscape:export-xdpi="48.099998"
     inkscape:export-filename="/Users/MacBook1/silent.png"
     id="ellipse929"
     fill="#97c14b"
     ry="158.91374"
     rx="77.88347"
     cy="191.008"
     cx="806.14806" />
  <path
     inkscape:export-ydpi="48.099998"
     inkscape:export-xdpi="48.099998"
     inkscape:export-filename="/Users/MacBook1/silent.png"
     id="path931"
     fill="#3f3d56"
     transform="translate(-101.06939 -224.59595)"
     d="M898.12426,675.40405c31.1399-186.83717.31439-372.9922-.00056-374.85051l-2.267.384c.3144,1.85494,31.07365,187.64393-.00056,374.08922Z" />
  <rect
     inkscape:export-ydpi="48.099998"
     inkscape:export-xdpi="48.099998"
     inkscape:export-filename="/Users/MacBook1/silent.png"
     id="rect933"
     fill="#3f3d56"
     transform="translate(4.52428 757.59634) rotate(-61.8584)"
     height="79.87126"
     width="2.29972"
     y="363.04537"
     x="871.26065" />
  <rect
     inkscape:export-ydpi="48.099998"
     inkscape:export-xdpi="48.099998"
     inkscape:export-filename="/Users/MacBook1/silent.png"
     id="rect935"
     fill="#3f3d56"
     transform="translate(-188.10195 272.08136) rotate(-28.15671)"
     height="2.29972"
     width="79.87126"
     y="420.7118"
     x="906.809" />
  <path
     inkscape:export-ydpi="48.099998"
     inkscape:export-xdpi="48.099998"
     inkscape:export-filename="/Users/MacBook1/silent.png"
     id="path937"
     fill="#3f3d56"
     transform="translate(-101.06939 -224.59595)"
     d="M690.67376,326.06186l9.20569-7.3628c-7.15149-.789-10.0899,3.11127-11.29248,6.19837-5.587-2.32-11.66919.72046-11.66919.72046l18.41889,6.6867A13.93792,13.93792,0,0,0,690.67376,326.06186Z" />
  <path
     inkscape:export-ydpi="48.099998"
     inkscape:export-xdpi="48.099998"
     inkscape:export-filename="/Users/MacBook1/silent.png"
     id="path939"
     fill="#3f3d56"
     transform="translate(-101.06939 -224.59595)"
     d="M465.67376,261.06186l9.20569-7.3628c-7.15149-.789-10.0899,3.11127-11.29248,6.19837-5.587-2.32-11.66919.72046-11.66919.72046l18.41889,6.6867A13.93792,13.93792,0,0,0,465.67376,261.06186Z" />
  <path
     inkscape:export-ydpi="48.099998"
     inkscape:export-xdpi="48.099998"
     inkscape:export-filename="/Users/MacBook1/silent.png"
     id="path941"
     fill="#3f3d56"
     transform="translate(-101.06939 -224.59595)"
     d="M832.67376,232.06186l9.20569-7.3628c-7.15149-.789-10.0899,3.11127-11.29248,6.19837-5.587-2.32-11.66919.72046-11.66919.72046l18.41889,6.6867A13.93792,13.93792,0,0,0,832.67376,232.06186Z" />
  <path
     inkscape:export-ydpi="48.099998"
     inkscape:export-xdpi="48.099998"
     inkscape:export-filename="/Users/MacBook1/silent.png"
     id="path943"
     fill="#3f3d56"
     transform="translate(-101.06939 -224.59595)"
     d="M851.26034,661.648a13.91772,13.91772,0,0,0-6.96955,1.86975A14.98175,14.98175,0,0,0,819.26034,674.648h45.94952A13.99045,13.99045,0,0,0,851.26034,661.648Z" />
  <path
     inkscape:export-ydpi="48.099998"
     inkscape:export-xdpi="48.099998"
     inkscape:export-filename="/Users/MacBook1/silent.png"
     id="path945"
     fill="#3f3d56"
     transform="translate(-101.06939 -224.59595)"
     d="M384.26034,661.648a13.91772,13.91772,0,0,0-6.96955,1.86975A14.98175,14.98175,0,0,0,352.26034,674.648h45.94952A13.99045,13.99045,0,0,0,384.26034,661.648Z" />
  <path
     inkscape:export-ydpi="48.099998"
     inkscape:export-xdpi="48.099998"
     inkscape:export-filename="/Users/MacBook1/silent.png"
     id="path947"
     fill="#3f3d56"
     transform="translate(-101.06939 -224.59595)"
     d="M623.26034,661.648a13.91772,13.91772,0,0,0-6.96955,1.86975A14.98175,14.98175,0,0,0,591.26034,674.648h45.94952A13.99045,13.99045,0,0,0,623.26034,661.648Z" />
  <polygon
     inkscape:export-ydpi="48.099998"
     inkscape:export-xdpi="48.099998"
     inkscape:export-filename="/Users/MacBook1/silent.png"
     id="polygon949"
     fill="#3f3d56"
     points="471.759 404.228 339.191 404.228 339.191 408.504 359.866 408.504 359.866 449.13 364.142 449.13 364.142 408.504 444.669 408.504 444.669 449.13 448.946 449.13 448.946 408.504 471.759 408.504 471.759 404.228" />
  <rect
     inkscape:export-ydpi="48.099998"
     inkscape:export-xdpi="48.099998"
     inkscape:export-filename="/Users/MacBook1/silent.png"
     id="rect951"
     fill="#3f3d56"
     height="4.27639"
     width="132.56808"
     y="391.43404"
     x="339.45191" />
  <rect
     inkscape:export-ydpi="48.099998"
     inkscape:export-xdpi="48.099998"
     inkscape:export-filename="/Users/MacBook1/silent.png"
     id="rect953"
     fill="#3f3d56"
     height="4.27639"
     width="132.56808"
     y="380.74306"
     x="339.45191" />
  <rect
     inkscape:export-ydpi="48.099998"
     inkscape:export-xdpi="48.099998"
     inkscape:export-filename="/Users/MacBook1/silent.png"
     id="rect955"
     fill="#3f3d56"
     height="4.27639"
     width="132.56808"
     y="370.05209"
     x="339.45191" />
  <polygon
     inkscape:export-ydpi="48.099998"
     inkscape:export-xdpi="48.099998"
     inkscape:export-filename="/Users/MacBook1/silent.png"
     id="polygon957"
     fill="#3f3d56"
     points="678.759 404.228 546.191 404.228 546.191 408.504 566.866 408.504 566.866 449.13 571.142 449.13 571.142 408.504 651.669 408.504 651.669 449.13 655.946 449.13 655.946 408.504 678.759 408.504 678.759 404.228" />
  <rect
     inkscape:export-ydpi="48.099998"
     inkscape:export-xdpi="48.099998"
     inkscape:export-filename="/Users/MacBook1/silent.png"
     id="rect959"
     fill="#3f3d56"
     height="4.27639"
     width="132.56808"
     y="391.43404"
     x="546.45191" />
  <rect
     inkscape:export-ydpi="48.099998"
     inkscape:export-xdpi="48.099998"
     inkscape:export-filename="/Users/MacBook1/silent.png"
     id="rect961"
     fill="#3f3d56"
     height="4.27639"
     width="132.56808"
     y="380.74306"
     x="546.45191" />
  <rect
     inkscape:export-ydpi="48.099998"
     inkscape:export-xdpi="48.099998"
     inkscape:export-filename="/Users/MacBook1/silent.png"
     id="rect963"
     fill="#3f3d56"
     height="4.27639"
     width="132.56808"
     y="370.05209"
     x="546.45191" />
</svg>
