<?xml version="1.0" encoding="utf-8"?>
<!-- Generator: Adobe Illustrator 16.0.0, SVG Export Plug-In . SVG Version: 6.00 Build 0)  -->
<!DOCTYPE svg PUBLIC "-//W3C//DTD SVG 1.1//EN" "http://www.w3.org/Graphics/SVG/1.1/DTD/svg11.dtd">
<svg version="1.1"
	 id="svg8" xmlns:dc="http://purl.org/dc/elements/1.1/" xmlns:cc="http://creativecommons.org/ns#" xmlns:rdf="http://www.w3.org/1999/02/22-rdf-syntax-ns#" xmlns:svg="http://www.w3.org/2000/svg" xmlns:sodipodi="http://sodipodi.sourceforge.net/DTD/sodipodi-0.dtd" xmlns:inkscape="http://www.inkscape.org/namespaces/inkscape" sodipodi:docname="height_icon.svg" inkscape:version="0.92.3 (2405546, 2018-03-11)"
	 xmlns="http://www.w3.org/2000/svg" xmlns:xlink="http://www.w3.org/1999/xlink" x="0px" y="0px" width="26.88px" height="17.69px"
	 viewBox="0 0 26.88 17.69" enable-background="new 0 0 26.88 17.69" xml:space="preserve">
<sodipodi:namedview  showgrid="false" inkscape:cy="-4.1037713" inkscape:cx="75.190178" inkscape:zoom="3.959798" borderopacity="1.0" bordercolor="#666666" pagecolor="#ffffff" id="base" inkscape:window-maximized="1" inkscape:window-y="-8" inkscape:current-layer="layer1" inkscape:window-x="-8" inkscape:document-units="mm" inkscape:pageopacity="0.0" inkscape:window-height="715" inkscape:window-width="1360" inkscape:pageshadow="2">
	</sodipodi:namedview>
<g id="layer1" transform="translate(-84.494722,-102.21908)" inkscape:label="Layer 1" inkscape:groupmode="layer">
	<path id="path7255-3-0" inkscape:connector-curvature="0" fill="#C15E4B" d="M92.13,119.83c-3.11-0.4-5.98-1.87-6.84-3.5
		c-0.24-0.45-0.3-0.73-0.41-1.74c-0.13-1.21-0.39-4.32-0.39-4.69c0-0.04,0.08,0.06,0.19,0.22c1.16,1.78,3.44,3.07,6.34,3.57
		c0.38,0.07,0.76,0.12,0.84,0.12H92l-0.09,0.11c-0.08,0.09-0.08,0.1-0.01,0.04c0.07-0.05,0.69-0.06,3.55-0.06
		c1.9,0.01,3.48,0.02,3.51,0.04c0.03,0.02,0.04,0.01,0.01-0.02c-0.03-0.04,0.35-0.06,1.48-0.06c0.83,0,3.63-0.01,6.22-0.03l4.7-0.03
		v3.05v3.05l-9.37-0.01C94.46,119.89,92.54,119.88,92.13,119.83L92.13,119.83z M92.8,118.76l0.01-0.83h-0.22h-0.22v0.81
		c0,0.45,0.01,0.83,0.03,0.85c0.02,0.02,0.11,0.03,0.21,0.02l0.17-0.01L92.8,118.76z M94.47,119.54c0.01-0.04,0.03-0.63,0.03-1.3
		s-0.01-1.26-0.03-1.3c-0.02-0.05-0.09-0.08-0.22-0.08h-0.19v1.38v1.38h0.19C94.38,119.61,94.45,119.59,94.47,119.54L94.47,119.54z
		 M96.04,118.75l0.01-0.84l-0.21,0.02l-0.21,0.02l-0.01,0.77c-0.01,0.42,0,0.8,0.01,0.84c0.01,0.04,0.09,0.06,0.21,0.05l0.18-0.02
		L96.04,118.75z M97.68,118.22l0.01-1.37l-0.21,0.02l-0.21,0.02l-0.01,1.26c-0.01,0.69,0,1.31,0.01,1.37
		c0.03,0.1,0.05,0.11,0.21,0.1l0.18-0.02L97.68,118.22z M99.27,119.51c0.01-0.06,0.02-0.44,0.01-0.83l-0.01-0.73l-0.21-0.02
		l-0.21-0.02v0.82c0,0.45,0.01,0.83,0.03,0.85c0.02,0.02,0.11,0.03,0.19,0.03C99.21,119.61,99.25,119.59,99.27,119.51L99.27,119.51z
		 M100.95,119.51c0.04-0.14,0.04-2.4,0-2.54c-0.03-0.1-0.06-0.11-0.23-0.1l-0.2,0.01l-0.01,1.26c-0.01,0.69,0,1.31,0.01,1.37
		c0.02,0.09,0.06,0.11,0.21,0.11C100.89,119.61,100.93,119.59,100.95,119.51L100.95,119.51z M102.51,118.77v-0.82l-0.21-0.02
		l-0.21-0.02v0.82c0,0.45,0.01,0.83,0.04,0.85c0.02,0.02,0.11,0.03,0.21,0.02l0.17-0.01V118.77z M104.2,118.24v-1.35H104h-0.19
		l-0.01,1.31c-0.01,0.72,0,1.33,0.01,1.37c0.01,0.04,0.09,0.06,0.21,0.05l0.18-0.02L104.2,118.24z M105.75,119.56
		c0.03-0.04,0.04-1.04,0.03-1.53c0-0.09-0.03-0.11-0.19-0.11c-0.13,0-0.2,0.03-0.22,0.08c-0.04,0.1-0.04,1.54,0,1.58
		C105.42,119.63,105.71,119.62,105.75,119.56L105.75,119.56z M107.44,118.24v-1.35h-0.19h-0.19l-0.01,1.31
		c-0.01,0.72,0,1.33,0.01,1.37c0.01,0.04,0.09,0.06,0.21,0.05l0.18-0.02L107.44,118.24z M109,118.75l0.01-0.84l-0.21,0.02
		l-0.21,0.02l-0.01,0.73c-0.02,0.93-0.01,0.95,0.22,0.93l0.18-0.02L109,118.75z M110.53,119.54c0.01-0.04,0.03-0.63,0.03-1.3
		s-0.01-1.26-0.03-1.3c-0.02-0.05-0.09-0.08-0.22-0.08h-0.19v1.38v1.38h0.19C110.44,119.61,110.51,119.59,110.53,119.54
		L110.53,119.54z M91.24,119.07c0.01-0.06,0.02-0.58,0.01-1.15l-0.01-1.04l-0.2-0.01c-0.17-0.01-0.2,0-0.23,0.1
		c-0.05,0.18-0.04,1.96,0.01,2.09c0.04,0.1,0.08,0.12,0.22,0.12C91.18,119.18,91.22,119.16,91.24,119.07L91.24,119.07z M93.3,113.32
		c-0.01-0.01-0.28-0.04-0.59-0.05c-1.77-0.09-3.77-0.65-5.09-1.42c-1.08-0.63-1.77-1.24-2.27-2c-0.5-0.77-0.69-1.44-0.65-2.29
		c0.07-1.31,0.89-2.54,2.34-3.51c4.32-2.89,12-2.25,14.89,1.24c1.51,1.82,1.24,4-0.71,5.69c-1.34,1.16-3.42,1.98-5.68,2.24
		C94.93,113.28,93.34,113.36,93.3,113.32L93.3,113.32z M95.08,110.01l0.47-0.12c0.88-0.22,1.58-0.58,2.08-1.07
		c0.26-0.25,0.54-0.75,0.54-0.93c0-0.06,0.03-0.16,0.07-0.24c0.04-0.07,0.05-0.12,0.03-0.11c-0.02,0.01-0.06-0.1-0.1-0.25
		c-0.06-0.28-0.27-0.67-0.53-0.95c-0.37-0.39-1.22-0.83-2.04-1.05c-2.45-0.64-5.29,0.11-6.08,1.6c-0.12,0.22-0.14,0.31-0.14,0.67
		c0,0.35,0.02,0.45,0.13,0.68c0.61,1.24,2.6,1.98,4.89,1.82l0.62-0.04 M97.84,113.31c0.01-0.01,0.19-0.06,0.39-0.1
		c0.98-0.19,2.05-0.67,2.88-1.29c0.53-0.4,0.95-0.84,1.31-1.38l0.26-0.39v1.56v1.56l-2.16,0.01c-1.19,0-2.28,0.01-2.43,0.03
		C97.94,113.33,97.83,113.33,97.84,113.31L97.84,113.31z"/>
</g>
</svg>
