<?xml version="1.0" encoding="utf-8"?>
<!-- Generator: Adobe Illustrator 16.0.0, SVG Export Plug-In . SVG Version: 6.00 Build 0)  -->
<!DOCTYPE svg PUBLIC "-//W3C//DTD SVG 1.1//EN" "http://www.w3.org/Graphics/SVG/1.1/DTD/svg11.dtd">
<svg version="1.1"
	 id="svg8" xmlns:dc="http://purl.org/dc/elements/1.1/" xmlns:cc="http://creativecommons.org/ns#" xmlns:rdf="http://www.w3.org/1999/02/22-rdf-syntax-ns#" xmlns:svg="http://www.w3.org/2000/svg" xmlns:sodipodi="http://sodipodi.sourceforge.net/DTD/sodipodi-0.dtd" xmlns:inkscape="http://www.inkscape.org/namespaces/inkscape" sodipodi:docname="seaweed_small.svg" inkscape:version="0.92.3 (2405546, 2018-03-11)"
	 xmlns="http://www.w3.org/2000/svg" xmlns:xlink="http://www.w3.org/1999/xlink" x="0px" y="0px" width="68.9px" height="74.75px"
	 viewBox="0 0 68.9 74.75" enable-background="new 0 0 68.9 74.75" xml:space="preserve">
<sodipodi:namedview  showgrid="false" inkscape:cy="17.294356" inkscape:cx="40.429102" inkscape:zoom="2.8" borderopacity="1.0" bordercolor="#666666" pagecolor="#ffffff" id="base" inkscape:window-maximized="1" inkscape:window-y="-8" inkscape:current-layer="g2560-6-8" inkscape:window-x="-8" inkscape:pageshadow="2" inkscape:document-units="mm" inkscape:pageopacity="0.0" inkscape:window-height="715" inkscape:window-width="1360">
	</sodipodi:namedview>
<g id="layer1" transform="translate(-62.639632,-79.275159)" inkscape:label="Layer 1" inkscape:groupmode="layer">
	<g id="g2560-6-8" transform="translate(-183.79499,56.098528)">
		<g id="g2514-4-8" transform="matrix(0.54341311,0.4923387,-0.4923387,0.54341311,225.76076,-50.936256)">
			<path id="path2510-0-8" inkscape:connector-curvature="0" fill="#719333" d="M184.23,43.26c3.2,1.41,5.72-1.77,8.06-3.41
				c2.27-1.79,5.77-1.97,8.2-0.47c2.87,2.64,2.15,7.14,0.87,10.4c-1.39,5.61-5.91,10.29-5.67,16.3c-0.25,7.79,0.89,15.64,3.36,23.03
				c2.29,2.17,0.2,5.23-2.31,5.89c-2.87,1.09-5.86,1.98-8.88,2.47c-3.92,0.26-2.35-4.39-3.19-6.73c-1.44-8.28-5.32-17.03-13.19-21
				c-4.58-1.88-10.2-3.48-12.3-8.47c-2.39-4.28-0.08-11.14,5.19-11.65c2.74,0.11,5.15,2.22,8.04,1.86c4.22-0.45,1.58-5.18-1.11-5.89
				c-3.5-2.45-7.57-5.66-7.63-10.32c0.71-4.66,5.66-6.86,9.76-7.81c4.92-1.14,9.11,3.24,10.34,7.63
				C184.47,37.73,184.85,40.58,184.23,43.26L184.23,43.26z"/>
			<path id="path2512-0-8" inkscape:connector-curvature="0" fill="#CDE1A8" d="M178.11,35.26c-0.36,2.23-0.71,4.46-1.07,6.7
				c-2.62-1.1-3.85-4.15-6.56-5.08c-2.03-0.33,0.72,1.75,1.33,2.28c1.75,1.39,3.72,2.53,5.21,4.21c1.27,4.6,2.54,9.2,3.8,13.79
				c-4.41-0.35-8.82-0.7-13.22-1.05c0.09,2.1,3.06,0.66,4.38,1.31c3.04,0.24,6.08,0.48,9.11,0.73c2.13,7.74,4.27,15.49,6.4,23.23
				c1.95-0.8-0.42-3.1-0.26-4.57c-1.75-6.33-3.49-12.66-5.23-18.99c2.67-3.06,5.35-6.13,8.02-9.19c-1.84-1.12-2.5,2.28-3.91,3.03
				c-1.47,1.68-2.94,3.37-4.41,5.06c-1.22-4.73-2.75-9.39-3.78-14.17c0.38-2.38,0.76-4.76,1.13-7.13
				C178.72,35.36,178.41,35.31,178.11,35.26L178.11,35.26z"/>
		</g>
		<g id="g2508-4-1" transform="translate(133.14243,-22.31633)">
			<path id="path5915-4-4-7" inkscape:connector-curvature="0" fill="#E8F1D7" d="M139.21,62.49c3.52,1.98,5.69-2.69,8.57-3.76
				c2.98-1.74,8.07-1.47,9.42,2.2c0.83,5.51-1.79,10.81-4.04,15.68c-2.18,3.52-2.81,7.6-2.59,11.68c0.2,5.66,1.06,11.31,2.35,16.82
				c0.61,2.82,4.11,6.63,0.18,8.38c-3.05,1.93-6.79,2.1-10.12,3.3c-3.54,0.66-2.68-3.63-3.18-5.77
				c-1.29-8.16-4.63-16.82-12.02-21.29c-4.15-2.56-9.77-3.05-12.62-7.45c-3.05-3.91-2.52-10.96,2.47-13.02
				c3.66-1.74,6.88,2.2,10.51,1.57c3.98-2.37-0.89-5.96-3.4-7.1c-3.09-2.32-6.56-5.63-6.03-9.85c1.22-4.38,5.97-6.33,10-7.26
				c4.63-0.73,8.76,3.12,9.84,7.4C139.48,56.72,139.83,59.67,139.21,62.49z"/>
			<path id="path5917-8-8-1" inkscape:connector-curvature="0" fill="#FFFFFF" d="M133.09,54.49c-0.36,2.23-0.71,4.46-1.07,6.7
				c-2.24-1.72-4.71-3.67-6.73-5.36c-2.34,0.54,2.01,2.46,2.71,3.45c1.68,1.55,4.31,2.45,4.46,5.02c1.11,4.03,2.22,8.07,3.33,12.1
				c-4.41-0.35-8.82-0.7-13.22-1.05c-0.57,1.66,1.79,0.83,2.76,1.18c3.58,0.29,7.16,0.57,10.73,0.85c2.13,7.74,4.27,15.49,6.4,23.23
				c1.75-0.04,0.17-1.97,0.17-3c-1.89-6.85-3.78-13.71-5.67-20.56c2.67-3.06,5.35-6.13,8.02-9.19c-1-1.44-1.73,0.95-2.59,1.52
				c-1.91,2.19-3.82,4.38-5.73,6.57c-1.24-4.7-2.7-9.39-3.8-14.1c0.38-2.4,0.76-4.8,1.15-7.21
				C133.71,54.59,133.4,54.54,133.09,54.49L133.09,54.49z"/>
		</g>
		<path id="circle1255-6-9-3-5-3-4-2-3" inkscape:connector-curvature="0" fill="#E7F0D5" d="M297.99,23.18
			c5.39-0.24,9.3,6.31,6.51,10.93c-2.34,4.81-9.86,5.18-12.65,0.61C288.48,30.03,292.21,23.02,297.99,23.18z M297.99,24.11
			c-4.99-0.25-8.36,6.1-5.37,10.1c2.57,4.22,9.63,3.54,11.34-1.1C305.82,29,302.52,23.99,297.99,24.11z"/>
		<path id="path2531-5-1" inkscape:connector-curvature="0" fill="#E7F0D5" d="M310.41,38.28c3.83-0.2,6.24,4.9,3.64,7.73
			c-2.27,3.07-7.69,1.72-8.27-2.05C305.12,41.12,307.5,38.2,310.41,38.28z M310.41,38.87c-5.08-0.27-5.53,7.99-0.42,8.24
			c4.99,0.78,6.34-7.39,1.26-8.16l-0.41-0.06L310.41,38.87z"/>
		<path id="path1295-2-57-1-0-2-6-7-7-6" inkscape:connector-curvature="0" fill="#FFFFFF" d="M286.06,28.24
			c-1.44,0.3-2.89,3.52-3.29,0.46c-2.84-1.08,0.73-1.72,1.29-3.02C284.61,26.75,285.07,27.47,286.06,28.24z"/>
		<path id="path2548-5-5" inkscape:connector-curvature="0" fill="#FFFFFF" d="M311.82,34.3c-1.27,1.47-2.28,1.06-2.73-0.56
			C311.17,32.55,310.14,32.58,311.82,34.3z"/>
	</g>
</g>
</svg>
