<?xml version="1.0" encoding="utf-8"?>
<!-- Generator: Adobe Illustrator 16.0.0, SVG Export Plug-In . SVG Version: 6.00 Build 0)  -->
<!DOCTYPE svg PUBLIC "-//W3C//DTD SVG 1.1//EN" "http://www.w3.org/Graphics/SVG/1.1/DTD/svg11.dtd">
<svg version="1.1"
	 id="svg838" xmlns:dc="http://purl.org/dc/elements/1.1/" xmlns:cc="http://creativecommons.org/ns#" xmlns:rdf="http://www.w3.org/1999/02/22-rdf-syntax-ns#" xmlns:svg="http://www.w3.org/2000/svg" xmlns:sodipodi="http://sodipodi.sourceforge.net/DTD/sodipodi-0.dtd" xmlns:inkscape="http://www.inkscape.org/namespaces/inkscape" sodipodi:docname="weight_icon.svg" inkscape:version="0.92.3 (2405546, 2018-03-11)"
	 xmlns="http://www.w3.org/2000/svg" xmlns:xlink="http://www.w3.org/1999/xlink" x="0px" y="0px" width="26.54px" height="16.33px"
	 viewBox="0 0 26.54 16.33" enable-background="new 0 0 26.54 16.33" xml:space="preserve">
<sodipodi:namedview  showgrid="false" inkscape:cy="39.941555" inkscape:cx="-97.419876" inkscape:zoom="0.7" borderopacity="1.0" bordercolor="#666666" pagecolor="#ffffff" id="base" inkscape:window-maximized="1" inkscape:window-y="-8" inkscape:current-layer="layer1" inkscape:window-x="-8" inkscape:pageshadow="2" inkscape:document-units="mm" inkscape:pageopacity="0.0" inkscape:window-height="715" inkscape:window-width="1360">
	</sodipodi:namedview>
<g id="layer1" transform="translate(-36.895293,-153.51197)" inkscape:label="Layer 1" inkscape:groupmode="layer">
	<path id="path7266-0-6" inkscape:connector-curvature="0" fill="#DAD332" d="M46.56,169.77c-0.49-0.19-9.45-9.21-9.59-9.66
		c-0.22-0.66,0.03-1.11,1.11-2.05c3.84-3.33,8.62-4.9,13.62-4.47c4.04,0.34,7.65,1.9,10.74,4.64c0.9,0.8,1.14,1.27,0.93,1.89
		c-0.16,0.47-9.13,9.48-9.63,9.67c-0.42,0.16-0.87,0.05-1.31-0.31c-0.89-0.74-2.16-1.04-3.19-0.75c-0.28,0.08-0.79,0.35-1.11,0.6
		C47.47,169.81,47,169.94,46.56,169.77L46.56,169.77z M48.48,166.31c0.14-0.05,0.21-0.2,0.21-0.48c0-0.23,0.05-0.44,0.12-0.48
		c0.07-0.05,0.12-1.32,0.12-3.44v-3.36l0.35-0.39c0.29-0.33,0.42-0.39,0.88-0.39c0.43,0,0.6,0.07,0.87,0.33l0.33,0.33l0.07,3.46
		c0.08,3.71,0.14,4.33,0.44,4.43c0.11,0.04,0.47,0.18,0.8,0.33l0.61,0.27l3.57-3.57c3.18-3.18,3.55-3.59,3.38-3.73
		c-0.12-0.1-0.41-0.15-0.73-0.13c-0.65,0.03-1.1-0.31-1.1-0.83c0-0.28-0.1-0.39-0.62-0.69c-0.34-0.2-0.84-0.44-1.11-0.54
		c-0.48-0.19-0.49-0.18-0.79,0.12c-0.34,0.34-0.94,0.41-1.29,0.14c-0.25-0.19-0.46-0.73-0.38-0.95c0.08-0.22-0.47-0.38-1.91-0.56
		l-1.07-0.13l-0.37,0.37c-0.48,0.48-0.89,0.48-1.37,0l-0.37-0.37l-1.07,0.13c-1.67,0.21-1.92,0.3-1.92,0.73
		c0,0.85-1.04,1.25-1.66,0.64c-0.3-0.3-0.31-0.3-0.79-0.12c-0.27,0.1-0.77,0.35-1.11,0.54c-0.52,0.3-0.62,0.41-0.62,0.69
		c0,0.53-0.45,0.87-1.1,0.83c-0.32-0.02-0.62,0.04-0.73,0.13c-0.17,0.14,0.2,0.55,3.38,3.74l3.57,3.57l0.61-0.27
		C48,166.5,48.37,166.35,48.48,166.31L48.48,166.31z"/>
</g>
</svg>
