<?xml version="1.0" encoding="utf-8"?>
<!-- Generator: Adobe Illustrator 16.0.0, SVG Export Plug-In . SVG Version: 6.00 Build 0)  -->
<!DOCTYPE svg PUBLIC "-//W3C//DTD SVG 1.1//EN" "http://www.w3.org/Graphics/SVG/1.1/DTD/svg11.dtd">
<svg version="1.1"
	 id="a816e8d7-4997-4ebd-a7b7-7af2120ae04f" xmlns:dc="http://purl.org/dc/elements/1.1/" xmlns:cc="http://creativecommons.org/ns#" xmlns:rdf="http://www.w3.org/1999/02/22-rdf-syntax-ns#" xmlns:svg="http://www.w3.org/2000/svg" xmlns:sodipodi="http://sodipodi.sourceforge.net/DTD/sodipodi-0.dtd" xmlns:inkscape="http://www.inkscape.org/namespaces/inkscape" inkscape:version="0.92.3 (2405546, 2018-03-11)" sodipodi:docname="woman_stand.svg"
	 xmlns="http://www.w3.org/2000/svg" xmlns:xlink="http://www.w3.org/1999/xlink" x="0px" y="0px" width="55.48px"
	 height="177.34px" viewBox="0 0 55.48 177.34" enable-background="new 0 0 55.48 177.34" xml:space="preserve">
<sodipodi:namedview  inkscape:cy="92.834525" inkscape:cx="127.93977" inkscape:zoom="2.536935" showgrid="false" guidetolerance="10" gridtolerance="10" objecttolerance="10" bordercolor="#666666" pagecolor="#ffffff" borderopacity="1" id="namedview93" inkscape:current-layer="a816e8d7-4997-4ebd-a7b7-7af2120ae04f" inkscape:window-maximized="1" inkscape:window-y="-8" inkscape:window-x="-8" inkscape:window-height="715" inkscape:window-width="1360" inkscape:pageopacity="0" inkscape:pageshadow="2">
	</sodipodi:namedview>
<title  id="title2">creative woman</title>
<g id="g1114" transform="matrix(0.27397326,0,0,0.27397261,-98.25055,-26.883182)">
	<rect id="rect10" x="408.89" y="163.39" fill="#FF6584" width="67.92" height="58.85"/>
	<rect id="rect12" x="408.95" y="163.58" opacity="0.1" enable-background="new    " width="67.92" height="58.85"/>
	<path id="path14" inkscape:connector-curvature="0" fill="#FFC1C7" d="M373.42,355.33l-9.24,75.47c0,0-12.73,36.37,12.12,42.58
		s1.97-49.56,1.97-49.56l9.55-69.26L373.42,355.33z"/>
	<path id="path16" inkscape:connector-curvature="0" fill="#2F2E41" d="M395.85,288.19c0,0-5.76,71.38-6.52,71.38
		c-0.58,0-5.37,0.35-11.17,0.65c-1.82,0.09-3.74,0.18-5.65,0.26c-8.03,0.3-1.51-11.06-1.06-11.82c0.46-0.76-1.66-7.73-5.15-13.49
		c-3.49-5.76,1.21-1.82,4.7-6.37c3.49-4.55,0.3-2.42-4.09-6.06c-4.4-3.64,2.58-4.85,6.21-6.37c3.64-1.51-0.15-1.97-4.24-4.54
		c-4.09-2.58-0.61-14.25,0-37.89c0.36-11.45,3.24-22.68,8.45-32.89c1.2-2.42,2.58-4.76,4.13-6.97l8.94-0.76
		c0,0,4.09,16.37,4.39,18.19S395.85,288.19,395.85,288.19L395.85,288.19z"/>
	<path id="path18" inkscape:connector-curvature="0" fill="#FFC1C7" d="M419.19,163.62c0,0,4.39,37.59-1.36,41.07
		c-5.76,3.49-8.18,14.25-8.18,14.25l21.52,11.21l36.67-7.12l-1.36-18.49c0,0-17.58-1.37-13.94-10.3c2.31-5.84,4.08-11.88,5.3-18.04
		L419.19,163.62z"/>
	<path id="path20" inkscape:connector-curvature="0" opacity="0.1" enable-background="new    " d="M419.19,163.62
		c0,0,4.39,37.59-1.36,41.07c-5.76,3.49-8.18,14.25-8.18,14.25l21.52,11.21l36.67-7.12l-1.36-18.49c0,0-17.58-1.37-13.94-10.3
		c2.31-5.84,4.08-11.88,5.3-18.04L419.19,163.62z"/>
	<path id="path22" inkscape:connector-curvature="0" fill="#FFC1C7" d="M443.59,550.37c-2.41,7.47-1.06,42.63-0.35,57.76
		c0.23,4.82,0.22,9.64,0,14.46l-1.61,34.01l0.04,1.03l1.93,50.19l-18.19-2.12l-1.37-27.43c0,0-1.69-6.57-4.07-16.45
		c-6.48-26.86-18.09-78.2-14.87-88.73c4.4-14.4-6.52-68.05-6.52-68.05l38.19-6.82C436.77,498.24,446.87,540.18,443.59,550.37
		L443.59,550.37z"/>
	<path id="path24" inkscape:connector-curvature="0" fill="#FFC1C7" d="M533.61,713.98L523,720.05c0,0-19.24-7.42-20.31-7.73
		c-1.06-0.3-2.27-16.22-2.27-16.22s-2.5-16.33-5.64-33.04c-2.21-11.77-4.74-23.73-6.93-30.31c-5.31-15.91-4.7-68.95-5.31-72.44
		c-0.61-3.49-19.24-68.05-19.24-68.05s40.46-7.58,45.61-3.03c5.15,4.54,10.01,59.41,9.7,71.07c-0.3,11.67,1.37,82.14,1.37,82.14
		s0.21,10.25,0.53,21.18c0.23,7.72,0.52,15.78,0.83,20.81c0.47,7.25,3.54,14.08,8.64,19.24L533.61,713.98z"/>
	<path id="path26" inkscape:connector-curvature="0" fill="#2F2E41" d="M516.79,711.56c0,0-10.45-13.79,13.94-12.73
		c0,0,2.27,2.42,6.67,8.33s33.04,28.19,18.64,32.43c-14.4,4.24-32.92,6.63-38.54,2.35c-8.18,2-16.69,2.35-25,1
		c0,0,1.7-27.45,3.07-30.63c1.37-3.18,2.88-19.25,2.88-19.25l16.52,21.07L516.79,711.56z"/>
	<circle id="circle28" fill="#FFC1C7" cx="444.8" cy="154.68" r="31.07"/>
	<path id="path30" inkscape:connector-curvature="0" opacity="0.1" enable-background="new    " d="M395.85,288.19
		c0,0-5.76,71.38-6.52,71.38c-0.58,0-5.37,0.35-11.17,0.65c0.26-0.69,0.66-1.33,1.17-1.86c3.79-3.49,5.61-29.55,5.61-29.55
		l-5.15-46.98l4.47-40.99c2.28-4.47-2.8-6.74-2.8-6.74l8.94-0.76c0,0,4.09,16.37,4.39,18.19S395.85,288.19,395.85,288.19z"/>
	<path id="path32" inkscape:connector-curvature="0" fill="#2F2E41" d="M494.36,211.96c0,0-28.79-11.82-30.92-10.76
		c-2.12,1.06-7.88,5.3-7.88,5.3s-13.49,14.09-31.67,10c0,0-6.21-3.03-6.06-11.82c0,0-18.95,10.16-24.85,16.82
		c-5.91,6.67-11.52,12.58-11.52,12.58l2.88,47.74l5.15,46.98c0,0-1.82,26.07-5.61,29.55c-3.79,3.49-8.64,33.64-3.03,82.75
		c5.61,49.1-5.91,65.32,0.76,69.71c6.67,4.4,57.59,1.51,86.99,2.88c29.4,1.37,47.74-6.82,46.22-8.94
		c-1.52-2.12-8.18-78.2-3.18-99.72c5-21.52,1.21-66.68,1.21-66.68L494.36,211.96z"/>
	<path id="path34" inkscape:connector-curvature="0" fill="#FFC1C7" d="M486.02,348.05c0,0-7.88,61.53-13.33,67.14
		c-5.46,5.61-7.42,50.17,2.12,50.17c9.55,0,18.19-49.25,18.19-49.25l14.55-66.68L486.02,348.05z"/>
	<path id="path36" inkscape:connector-curvature="0" fill="#2F2E41" d="M416.46,705.41c0,0,19.7-13.33,30.16,0
		c0,0,4.39,29.71,0,33.04c-4.4,3.34-34.4,8.94-35.01,0c-0.61-8.94,1.52-13.03,1.52-13.03l3.33-12.13V705.41z"/>
	<path id="path38" inkscape:connector-curvature="0" opacity="0.1" enable-background="new    " d="M491.71,220.07l-0.99-5.23
		c0,0,22.13,23.79,25.76,44.41c3.64,20.61,11.67,41.98,6.06,44.86c-5.61,2.88-10.16,1.97-7.58,6.67c2.58,4.7,3.33,10.3,0.76,12.13
		c-2.58,1.82-4.4,3.33-3.49,7.12s0.91,11.52-0.91,13.19c-1.82,1.67-6.37,15-6.37,15s-18.49-6.06-25.46-1.97s-1.06-15.91-1.06-15.91
		s-1.51-8.03-3.79-9.4c-2.27-1.37-3.64-3.94-0.76-6.67c2.88-2.73,5.15-2.73,1.21-6.52c-3.94-3.79-9.24-2.12-3.79-6.06
		c5.46-3.94,8.34-5.76,4.7-9.55c-3.64-3.79-6.82-5.91-4.24-9.25C474.35,289.55,478.97,216.74,491.71,220.07z"/>
	<path id="path40" inkscape:connector-curvature="0" fill="#2F2E41" d="M489.2,212.87l5.15-0.91c0,0,22.12,23.79,25.76,44.41
		c3.64,20.61,11.67,41.98,6.06,44.86c-5.61,2.88-10.15,1.97-7.57,6.67c2.57,4.7,3.33,10.31,0.76,12.13
		c-2.58,1.82-4.4,3.33-3.49,7.12c0.91,3.79,0.91,11.52-0.91,13.19s-6.37,15-6.37,15s-18.49-6.06-25.46-1.97
		c-6.97,4.09-1.06-15.92-1.06-15.92s-1.51-8.03-3.79-9.4c-2.27-1.36-3.64-3.94-0.76-6.67c2.88-2.73,5.15-2.73,1.22-6.52
		c-3.94-3.79-9.25-2.12-3.79-6.06c5.45-3.94,8.33-5.76,4.7-9.55c-3.64-3.79-6.82-5.91-4.25-9.25
		C477.99,286.67,476.48,209.54,489.2,212.87L489.2,212.87z"/>
	<path id="path42" inkscape:connector-curvature="0" fill="#FF6584" d="M418.64,118.97c-3.31,2.53-6.11,5.67-8.24,9.25
		c-1.05,2.04-1.92,4.17-2.61,6.36c-2.46,7.08-8.58,14.25-5.99,21.28c0.74,2.01,1.89,4.12,1.23,6.16c-0.59,1.8-2.4,2.86-3.72,4.23
		c-2.82,2.95-3.29,7.37-3.46,11.44c-0.31,7.46,3.79,16.25,8.74,21.83c1.08,1.05,2.07,2.18,2.98,3.38c1.24,1.93,1.58,4.31,0.93,6.51
		l7.22-1.5c0.26,2.66,0.34,5.34,0.24,8.02c3.53,0.38,6.84-1.76,7.94-5.13c0.41,1.91,1.08,3.75,1.98,5.48
		c2.12-2.65,3.74-5.65,4.79-8.88c1.38-4.13,1.68-8.54,0.86-12.82c-0.77-3.12-1.8-6.17-3.11-9.11c-2.55-6.45-4.63-13.07-6.72-19.68
		c-1.08-3.43-2.17-6.98-1.85-10.57l2.57-0.28c0.03-1.42,0.3-2.82,0.81-4.14c1.5,0.32,2.95,0.86,4.29,1.61l2.96-7.5
		c1.95,2.02,4.75,2.94,7.43,3.79l10.19,3.21l0.06-2.02c4.3,3.81,9.2,6.88,14.51,9.1c-0.61-0.73-0.87-1.69-0.72-2.63
		c2.51,4.5,1.51,10.11-0.04,15.02c-1.55,4.92-3.61,9.92-2.98,15.03c0.47,3.82,2.43,7.49,2.06,11.32c-0.18,1.89-0.92,3.69-1.15,5.57
		c-0.55,4.49,1.81,8.78,4.1,12.69l4.43-6.09c1.49-2.32,3.39-4.37,5.59-6.03c2.36-1.56,5.28-2.26,7.34-4.21
		c3.67-3.48,3.2-9.39,2.01-14.3c-0.63-2.61-1.4-5.26-1.17-7.93c0.4-4.54,3.55-8.29,5.32-12.48c2.57-6.2,2.12-13.23-1.21-19.05
		c-2.2-3.78-5.53-6.82-7.61-10.67c-2.07-3.83-2.86-8.39-5.69-11.7c-1.38-1.5-2.99-2.78-4.77-3.8c-8.05-4.83-17.08-7.78-26.43-8.63
		C432.92,110.18,425.44,113.37,418.64,118.97L418.64,118.97z"/>
</g>
<g id="surface1" transform="translate(-7.5363744e-8,-1.6625699)">
	<g>
		<defs>
			<path id="SVGID_1_" d="M10.11,105.79l5.33,68.09c0.18,2.38,2.2,4.21,4.59,4.21h15.25c2.39,0,4.41-1.83,4.59-4.21l5.33-68.09
				l5.88-6.95c2.75-3.3,4.41-7.5,4.41-11.9V50.34c0-1.65-0.73-3.3-2.02-4.21c-6.98-5.86-14.7-9.52-16.17-10.43
				c-0.18,0-0.37-0.18-0.37-0.37v-4.76c0.73-1.46,1.1-2.93,1.29-4.39c0.18,0.18,0.37,0.18,0.55,0.18c0.55,0,1.47-0.73,2.39-4.02
				c0.92-3.3,0.37-4.39-0.37-4.76c2.57-12.63-3.31-13-3.31-13s-0.92-1.83-3.3-3.11C32.7,0.73,30.86,0,28.48,0c-0.37,0-0.73,0-1.1,0
				c-0.92,0-1.84,0.18-2.76,0.55c-1.1,0.36-2.02,0.91-2.94,1.46c-1.47,0.92-2.39,1.65-3.31,2.75c-1.47,1.46-2.75,3.3-3.3,5.86
				c-0.55,2.01-0.55,4.21,0.37,6.41h-0.18c-1.11,0-2.02,0.73-0.92,4.76c0.92,3.11,1.66,4.03,2.39,4.03
				c0.18,1.83,0.92,3.66,1.84,5.49v4.02c0,0.18-0.18,0.37-0.37,0.37C16.72,36.43,9,40.27,2.02,46.13C0.73,47.22,0,48.69,0,50.34
				v36.79c0,4.39,1.47,8.42,4.23,11.9L10.11,105.79z"/>
		</defs>
		<clipPath id="SVGID_2_">
			<use xlink:href="#SVGID_1_"  overflow="visible"/>
		</clipPath>
		<g id="g9" clip-path="url(#SVGID_2_)">
		</g>
	</g>
</g>
</svg>
